<svg xmlns="http://www.w3.org/2000/svg" width="157" height="26" viewBox="0 0 157 26">
  <g fill="none" fill-rule="evenodd">
    <path fill="#003A69" fill-rule="nonzero" d="M38.7483871,20.8 L36.7354839,20.8 C36.483871,20.8 36.4,20.716129 36.4,20.4645161 L36.4,5.53548387 C36.4,5.28387097 36.483871,5.2 36.7354839,5.2 L39.083871,5.2 C39.2516129,5.2 39.3354839,5.28387097 39.4193548,5.4516129 L42.1032258,10.4 C42.6903226,11.4064516 43.2774194,12.7483871 43.9483871,14.2580645 L44.0322581,14.2580645 C44.7032258,12.7483871 45.3741935,11.4064516 45.8774194,10.4 L48.4774194,5.4516129 C48.5612903,5.28387097 48.7290323,5.2 48.8129032,5.2 L51.1612903,5.2 C51.4129032,5.2 51.4967742,5.28387097 51.4967742,5.53548387 L51.4967742,20.4645161 C51.4967742,20.716129 51.4129032,20.8 51.1612903,20.8 L49.1483871,20.8 C48.8967742,20.8 48.8129032,20.716129 48.8129032,20.4645161 L48.8129032,16.0193548 C48.8129032,14.3419355 48.8967742,11.9935484 48.9806452,9.14193548 L48.8967742,9.14193548 C48.4774194,10.0645161 47.8064516,11.4064516 46.9677419,13.1677419 L45.0387097,16.8580645 C44.9548387,17.0258065 44.8709677,17.1096774 44.7032258,17.1096774 L43.0258065,17.1096774 C42.8580645,17.1096774 42.6903226,17.0258065 42.6903226,16.8580645 L40.7612903,13.1677419 C39.8387097,11.4064516 39.2516129,10.0645161 38.8322581,9.14193548 L38.7483871,9.14193548 C38.8322581,11.9935484 38.916129,14.2580645 38.916129,16.0193548 L38.916129,20.4645161 C39,20.716129 38.916129,20.8 38.7483871,20.8 Z M63.7419355,16.6064516 C63.7419355,17.9483871 63.3225806,19.0387097 62.4,19.7935484 C61.4774194,20.5483871 60.3032258,20.9677419 58.7935484,20.9677419 C57.283871,20.9677419 56.1096774,20.5483871 55.1870968,19.7935484 C54.2645161,19.0387097 53.8451613,17.9483871 53.8451613,16.6064516 L53.8451613,13.6709677 C53.8451613,12.3290323 54.2645161,11.2387097 55.1870968,10.4 C56.1096774,9.56129032 57.283871,9.14193548 58.7935484,9.14193548 C60.3032258,9.14193548 61.4774194,9.56129032 62.4,10.4 C63.3225806,11.2387097 63.7419355,12.3290323 63.7419355,13.6709677 L63.7419355,16.6064516 Z M56.3612903,16.6064516 C56.3612903,18.0322581 57.116129,18.7870968 58.7935484,18.7870968 C59.5483871,18.7870968 60.1354839,18.6193548 60.6387097,18.2 C61.0580645,17.8645161 61.2258065,17.2774194 61.2258065,16.6064516 L61.2258065,13.6709677 C61.2258065,13 60.9741935,12.4129032 60.5548387,11.9935484 C60.1354839,11.5741935 59.5483871,11.4064516 58.7935484,11.4064516 C58.0387097,11.4064516 57.4516129,11.5741935 56.9483871,11.9935484 C56.5290323,12.3290323 56.3612903,12.916129 56.3612903,13.6709677 L56.3612903,16.6064516 Z M67.0129032,23.7354839 L65.2516129,23.7354839 C65,23.7354839 64.916129,23.6516129 64.916129,23.4 L64.916129,18.8709677 C64.916129,18.6193548 65,18.5354839 65.2516129,18.5354839 L65.7548387,18.5354839 C66.2580645,18.2 66.5935484,17.4451613 66.8451613,16.2709677 C67.0967742,15.0967742 67.3483871,12.916129 67.6,9.81290323 C67.6,9.56129032 67.7677419,9.47741935 67.9354839,9.47741935 L75.1483871,9.47741935 C75.4,9.47741935 75.483871,9.56129032 75.483871,9.81290323 L75.483871,18.5354839 L76.5741935,18.5354839 C76.8258065,18.5354839 76.9096774,18.6193548 76.9096774,18.8709677 L76.9096774,23.4 C76.9096774,23.6516129 76.8258065,23.7354839 76.5741935,23.7354839 L74.8129032,23.7354839 C74.5612903,23.7354839 74.4774194,23.6516129 74.4774194,23.4 L74.4774194,20.8 L67.3483871,20.8 L67.3483871,23.4 C67.3483871,23.6516129 67.2645161,23.7354839 67.0129032,23.7354839 Z M69.9483871,11.7419355 C69.6129032,15.3483871 69.1935484,17.6129032 68.4387097,18.6193548 L72.9677419,18.6193548 L72.9677419,11.7419355 L69.9483871,11.7419355 Z M85.5483871,17.6967742 L85.5483871,9.81290323 C85.5483871,9.56129032 85.6322581,9.47741935 85.883871,9.47741935 L87.7290323,9.47741935 C87.9806452,9.47741935 88.0645161,9.56129032 88.0645161,9.81290323 L88.0645161,20.1290323 C88.0645161,23.483871 86.4709677,25.2451613 83.2,25.2451613 C81.4387097,25.2451613 80.0129032,24.8258065 78.9225806,23.9032258 C78.7548387,23.8193548 78.7548387,23.6516129 78.8387097,23.483871 L79.7612903,22.1419355 C79.8451613,21.9741935 80.0129032,21.8903226 80.1806452,22.0580645 C81.1870968,22.7290323 82.1096774,23.0645161 83.116129,23.0645161 C83.9548387,23.0645161 84.5419355,22.8129032 84.9612903,22.3935484 C85.3806452,21.9741935 85.5483871,21.2193548 85.5483871,20.2129032 C84.7096774,20.4645161 83.9548387,20.6322581 83.2,20.6322581 C81.9419355,20.6322581 80.8516129,20.2129032 79.9290323,19.4580645 C79.0064516,18.7032258 78.5032258,17.6129032 78.5032258,16.1870968 L78.5032258,9.98064516 C78.5032258,9.72903226 78.5870968,9.64516129 78.8387097,9.64516129 L80.7677419,9.64516129 C81.0193548,9.64516129 81.1032258,9.72903226 81.1032258,9.98064516 L81.1032258,15.9354839 C81.1032258,16.6903226 81.3548387,17.2774194 81.7741935,17.6129032 C82.1935484,17.9483871 82.8645161,18.2 83.5354839,18.2 C84.2903226,18.2 84.9612903,18.0322581 85.5483871,17.6967742 Z M94.0193548,17.1096774 C93.7677419,18.4516129 93.3483871,19.4580645 92.7612903,20.0451613 C92.1741935,20.6322581 91.2516129,20.883871 90.0774194,20.9677419 C89.8258065,20.9677419 89.7419355,20.883871 89.7419355,20.6322581 L89.7419355,19.0387097 C89.7419355,18.8709677 89.8258065,18.7032258 90.0774194,18.7032258 C90.4967742,18.7032258 90.8322581,18.4516129 91.083871,18.2 C91.3354839,17.8645161 91.5032258,17.2774194 91.6709677,16.5225806 C91.9225806,15.0967742 92.0903226,12.916129 92.2580645,9.98064516 C92.2580645,9.72903226 92.4258065,9.64516129 92.5935484,9.64516129 L99.9741935,9.64516129 C100.225806,9.64516129 100.309677,9.72903226 100.309677,9.98064516 L100.309677,20.6322581 C100.309677,20.883871 100.225806,20.9677419 99.9741935,20.9677419 L98.1290323,20.9677419 C97.8774194,20.9677419 97.7935484,20.883871 97.7935484,20.6322581 L97.7935484,11.7419355 L94.6064516,11.7419355 C94.4387097,13.7548387 94.2709677,15.6 94.0193548,17.1096774 Z M107.270968,20.8 L102.741935,20.8 C102.490323,20.8 102.406452,20.716129 102.406452,20.4645161 L102.406452,9.81290323 C102.406452,9.56129032 102.490323,9.47741935 102.741935,9.47741935 L104.587097,9.47741935 C104.83871,9.47741935 104.922581,9.56129032 104.922581,9.81290323 L104.922581,13.1677419 L107.270968,13.1677419 C108.612903,13.1677419 109.703226,13.5032258 110.541935,14.1741935 C111.380645,14.8451613 111.8,15.7677419 111.8,17.0258065 C111.8,18.283871 111.380645,19.2903226 110.625806,19.8774194 C109.787097,20.4645161 108.696774,20.8 107.270968,20.8 Z M105.006452,15.2645161 L105.006452,18.7032258 L106.851613,18.7032258 C108.445161,18.7032258 109.2,18.116129 109.2,17.0258065 C109.2,16.4387097 109.032258,16.0193548 108.612903,15.683871 C108.193548,15.4322581 107.606452,15.2645161 106.851613,15.2645161 L105.006452,15.2645161 Z M115.154839,11.4064516 L119.264516,11.4064516 C121.025806,11.4064516 122.367742,11.7419355 123.206452,12.4967742 C124.045161,13.2516129 124.464516,14.4258065 124.464516,16.0193548 C124.464516,17.5290323 124.045161,18.7032258 123.122581,19.5419355 C122.2,20.2967742 120.941935,20.8 119.348387,20.8 L114.064516,20.8 C113.980645,20.8 113.896774,20.716129 113.896774,20.6322581 L113.896774,5.36774194 C113.896774,5.28387097 113.980645,5.2 114.064516,5.2 L123.290323,5.2 C123.374194,5.2 123.458065,5.28387097 123.458065,5.36774194 L123.458065,6.12258065 C123.458065,6.20645161 123.374194,6.29032258 123.290323,6.29032258 L115.154839,6.29032258 L115.154839,11.4064516 Z M115.154839,19.7096774 L119.348387,19.7096774 C120.606452,19.7096774 121.612903,19.3741935 122.283871,18.7870968 C122.954839,18.2 123.290323,17.2774194 123.290323,16.1032258 C123.290323,14.8451613 122.954839,14.0064516 122.367742,13.4193548 C121.696774,12.8322581 120.690323,12.5806452 119.348387,12.5806452 L115.23871,12.5806452 L115.154839,19.7096774 Z M126.645161,10.4 C127.735484,9.64516129 129.077419,9.30967742 130.587097,9.30967742 C131.929032,9.30967742 132.935484,9.64516129 133.690323,10.4 C134.445161,11.0709677 134.780645,12.1612903 134.780645,13.4193548 L134.780645,20.0451613 C134.780645,20.1290323 134.696774,20.2129032 134.612903,20.2967742 C133.354839,20.8 132.012903,21.0516129 130.503226,21.0516129 C129.16129,21.0516129 128.070968,20.716129 127.232258,20.1290323 C126.393548,19.5419355 125.974194,18.6193548 125.974194,17.5290323 C125.974194,16.4387097 126.393548,15.6 127.232258,15.0129032 C128.070968,14.4258065 129.16129,14.0903226 130.587097,14.0903226 C131.341935,14.0903226 132.348387,14.1741935 133.606452,14.4258065 L133.606452,13.4193548 C133.606452,11.4064516 132.6,10.4 130.587097,10.4 C129.329032,10.4 128.23871,10.7354839 127.232258,11.3225806 C127.148387,11.4064516 127.064516,11.4064516 126.980645,11.3225806 L126.645161,10.7354839 L126.645161,10.4 Z M127.232258,17.5290323 C127.232258,18.283871 127.567742,18.8709677 128.154839,19.3741935 C128.741935,19.7935484 129.580645,20.0451613 130.670968,20.0451613 C131.677419,20.0451613 132.683871,19.8774194 133.690323,19.5419355 L133.690323,15.4322581 C132.683871,15.1806452 131.677419,15.0967742 130.670968,15.0967742 C128.322581,15.0129032 127.232258,15.8516129 127.232258,17.5290323 Z M138.051613,20.8 L137.296774,20.8 C137.212903,20.8 137.129032,20.716129 137.129032,20.6322581 L137.129032,9.72903226 C137.129032,9.64516129 137.212903,9.56129032 137.296774,9.56129032 L138.051613,9.56129032 C138.135484,9.56129032 138.219355,9.64516129 138.219355,9.72903226 L138.219355,14.4258065 L144.425806,14.4258065 L144.425806,9.72903226 C144.425806,9.64516129 144.509677,9.56129032 144.593548,9.56129032 L145.348387,9.56129032 C145.432258,9.56129032 145.516129,9.64516129 145.516129,9.72903226 L145.516129,20.5483871 C145.516129,20.6322581 145.432258,20.716129 145.348387,20.716129 L144.593548,20.716129 C144.509677,20.716129 144.425806,20.6322581 144.425806,20.5483871 L144.425806,15.4322581 L138.219355,15.4322581 L138.219355,20.5483871 C138.219355,20.716129 138.135484,20.8 138.051613,20.8 Z M156.503226,20.8 L155.496774,20.8 C155.412903,20.8 155.329032,20.8 155.245161,20.716129 L150.464516,15.3483871 L148.787097,16.8580645 L148.787097,20.5483871 C148.787097,20.6322581 148.703226,20.716129 148.619355,20.716129 L147.864516,20.716129 C147.780645,20.716129 147.696774,20.6322581 147.696774,20.5483871 L147.696774,9.72903226 C147.696774,9.64516129 147.780645,9.56129032 147.864516,9.56129032 L148.619355,9.56129032 C148.703226,9.56129032 148.787097,9.64516129 148.787097,9.72903226 L148.787097,15.4322581 L154.825806,9.56129032 C154.909677,9.47741935 154.909677,9.47741935 155.077419,9.47741935 L156.083871,9.47741935 C156.167742,9.47741935 156.167742,9.47741935 156.251613,9.56129032 C156.251613,9.56129032 156.251613,9.64516129 156.167742,9.72903226 L151.219355,14.5096774 L156.503226,20.5483871 C156.754839,20.716129 156.670968,20.8 156.503226,20.8 Z"/>
    <polygon fill="#90D1F3" points="0 0 5.2 0 5.2 5.2 0 5.2"/>
    <polygon fill="#D3D800" points="0 5.2 5.2 5.2 5.2 10.4 0 10.4"/>
    <polygon fill="#88BD1F" points="5.2 5.2 10.4 5.2 10.4 10.4 5.2 10.4"/>
    <polygon fill="#003A69" points="10.4 0 15.6 0 15.6 5.2 10.4 5.2"/>
    <polygon fill="#90D1F3" points="15.6 0 20.8 0 20.8 5.2 15.6 5.2"/>
    <polygon fill="#009EE3" points="15.6 5.2 20.8 5.2 20.8 10.4 15.6 10.4"/>
    <polygon fill="#88BD1F" points="20.8 5.2 26 5.2 26 10.4 20.8 10.4"/>
    <polygon fill="#90D1F3" points="20.8 10.4 26 10.4 26 15.6 20.8 15.6"/>
    <polygon fill="#009EE3" points="20.8 20.8 26 20.8 26 26 20.8 26"/>
    <path fill="#D3D800" fill-rule="nonzero" d="M15.6,15.6 L20.8,15.6 L20.8,20.8 L15.6,20.8 L15.6,15.6 Z M10.4,10.4 L15.6,10.4 L15.6,15.6 L10.4,15.6 L10.4,10.4 Z"/>
    <polygon fill="#88BD1F" points="10.4 20.8 15.6 20.8 15.6 26 10.4 26"/>
    <polygon fill="#90D1F3" points="5.2 10.4 10.4 10.4 10.4 15.6 5.2 15.6"/>
    <polygon fill="#009EE3" points="5.2 15.6 10.4 15.6 10.4 20.8 5.2 20.8"/>
    <polygon fill="#003A69" points="0 15.6 5.2 15.6 5.2 20.8 0 20.8"/>
    <polygon fill="#90D1F3" points="0 20.8 5.2 20.8 5.2 26 0 26"/>
  </g>
</svg>
