<svg xmlns="http://www.w3.org/2000/svg" xmlns:xlink="http://www.w3.org/1999/xlink" width="98" height="70" viewBox="0 0 98 70">
  <defs>
    <polygon id="peugeot_logo-a" points=".404 .426 97.148 .426 97.148 69.149 .404 69.149"/>
    <linearGradient id="peugeot_logo-c" x1="107.585%" x2="-28.464%" y1="91.949%" y2="11.916%">
      <stop offset="0%" stop-color="#D3D3D3"/>
      <stop offset="36.812%" stop-color="#4F4C4C"/>
      <stop offset="36.812%" stop-color="#4F4C4C"/>
      <stop offset="81.319%" stop-color="#B0AFAF"/>
      <stop offset="100%" stop-color="#231F20"/>
    </linearGradient>
    <linearGradient id="peugeot_logo-d" x1="39.808%" x2="64.558%" y1="9.799%" y2="115.292%">
      <stop offset="0%" stop-color="#B2B1B1"/>
      <stop offset="20%" stop-color="#B2B1B1"/>
      <stop offset="98.966%" stop-color="#656263"/>
      <stop offset="98.966%" stop-color="#656263"/>
      <stop offset="100%" stop-color="#656263"/>
    </linearGradient>
    <linearGradient id="peugeot_logo-e" x1="99.616%" x2="16.298%" y1="48.235%" y2="55.92%">
      <stop offset="0%" stop-color="#4F4C4C"/>
      <stop offset="35.861%" stop-color="#FFF"/>
      <stop offset="35.861%" stop-color="#FFF"/>
      <stop offset="82.413%" stop-color="#4F4C4C"/>
      <stop offset="100%" stop-color="#393536"/>
    </linearGradient>
    <linearGradient id="peugeot_logo-f" x1="48.774%" x2="60.35%" y1="25.205%" y2="80.812%">
      <stop offset="0%" stop-color="#D3D3D3"/>
      <stop offset="36.812%" stop-color="#B2B1B1"/>
      <stop offset="98.966%" stop-color="#231F20"/>
      <stop offset="100%" stop-color="#231F20"/>
    </linearGradient>
    <linearGradient id="peugeot_logo-g" x1="83.201%" x2="-27.62%" y1="-18.923%" y2="110.849%">
      <stop offset="0%" stop-color="#918F90"/>
      <stop offset="12.086%" stop-color="#9C9A9B"/>
      <stop offset="12.086%" stop-color="#9C9A9B"/>
      <stop offset="17.032%" stop-color="#7B7979"/>
      <stop offset="30.768%" stop-color="#918F90"/>
      <stop offset="47.252%" stop-color="#F4F4F4"/>
      <stop offset="84.065%" stop-color="#7F7D7E"/>
      <stop offset="84.065%" stop-color="#7F7D7E"/>
      <stop offset="96.153%" stop-color="#4F4C4C"/>
      <stop offset="100%" stop-color="#4F4C4C"/>
    </linearGradient>
    <radialGradient id="peugeot_logo-h" cx="24.152%" cy="39.411%" r="80.024%" fx="24.152%" fy="39.411%" gradientTransform="matrix(.98895 0 0 1 .003 0)">
      <stop offset="0%" stop-color="#FFF"/>
      <stop offset="46.703%" stop-color="#FFF"/>
      <stop offset="74.724%" stop-color="#9C9A9B"/>
      <stop offset="74.724%" stop-color="#9C9A9B"/>
      <stop offset="84.615%" stop-color="#7B7979"/>
      <stop offset="100%" stop-color="#4F4C4C"/>
    </radialGradient>
    <radialGradient id="peugeot_logo-i" cx="96.832%" cy="56.163%" r="150.156%" fx="96.832%" fy="56.163%" gradientTransform="matrix(.63138 0 0 1 .357 0)">
      <stop offset="0%" stop-color="#FFF"/>
      <stop offset="22.759%" stop-color="#FFF"/>
      <stop offset="100%" stop-color="#231F20"/>
    </radialGradient>
    <radialGradient id="peugeot_logo-j" cx="76.777%" cy="129.755%" r="180.041%" fx="76.777%" fy="129.755%" gradientTransform="matrix(.59578 0 0 1 .31 0)">
      <stop offset="0%" stop-color="#FFF"/>
      <stop offset="57.143%" stop-color="#F7F7F7"/>
      <stop offset="57.143%" stop-color="#F7F7F7"/>
      <stop offset="86.263%" stop-color="#231F20"/>
      <stop offset="100%" stop-color="#231F20"/>
    </radialGradient>
    <radialGradient id="peugeot_logo-k" cx="73.487%" cy="81.38%" r="258.354%" fx="73.487%" fy="81.38%" gradientTransform="matrix(.6507 0 0 1 .257 0)">
      <stop offset="0%" stop-color="#FFF"/>
      <stop offset="25.275%" stop-color="#FFF"/>
      <stop offset="34.615%" stop-color="#A7A6A6"/>
      <stop offset="34.615%" stop-color="#A7A6A6"/>
      <stop offset="41.208%" stop-color="#7B7979"/>
      <stop offset="47.252%" stop-color="#4F4C4C"/>
      <stop offset="100%" stop-color="#4F4C4C"/>
    </radialGradient>
    <linearGradient id="peugeot_logo-l" x1="87.205%" x2="8.821%" y1="73.623%" y2="-23.848%">
      <stop offset="0%" stop-color="#F4F4F4"/>
      <stop offset="25.824%" stop-color="#BDBCBC"/>
      <stop offset="64.835%" stop-color="#F4F4F4"/>
      <stop offset="89.56%" stop-color="#FFF"/>
      <stop offset="100%" stop-color="#FFF"/>
    </linearGradient>
    <polygon id="peugeot_logo-m" points=".404 .426 97.148 .426 97.148 69.149 .404 69.149"/>
    <linearGradient id="peugeot_logo-o" x1="23.867%" x2="105.227%" y1="94.842%" y2="6.436%">
      <stop offset="0%" stop-color="#FFF"/>
      <stop offset="6.895%" stop-color="#E3E2E2"/>
      <stop offset="15.649%" stop-color="#FFF"/>
      <stop offset="32.967%" stop-color="#D3D3D3"/>
      <stop offset="32.967%" stop-color="#D3D3D3"/>
      <stop offset="50.203%" stop-color="#FFF"/>
      <stop offset="97.965%" stop-color="#BBBABA"/>
      <stop offset="97.965%" stop-color="#BBBABA"/>
      <stop offset="100%" stop-color="#BBBABA"/>
    </linearGradient>
    <linearGradient id="peugeot_logo-p" x1="3.339%" x2="92.422%" y1="99.235%" y2="8.968%">
      <stop offset="0%" stop-color="#DEDEDE"/>
      <stop offset="50.69%" stop-color="#4F4C4C"/>
      <stop offset="100%" stop-color="#DEDEDE"/>
    </linearGradient>
    <linearGradient id="peugeot_logo-q" x1="99.597%" x2="11.571%" y1="97.207%" y2="-1.238%">
      <stop offset="0%" stop-color="#C8C7C8"/>
      <stop offset="9.999%" stop-color="#FFF"/>
      <stop offset="34.92%" stop-color="#F0F0F0"/>
      <stop offset="53.845%" stop-color="#FFF"/>
      <stop offset="71.428%" stop-color="#393536"/>
      <stop offset="84.137%" stop-color="#FFF"/>
      <stop offset="91.034%" stop-color="#514E4F"/>
      <stop offset="100%" stop-color="#868484"/>
    </linearGradient>
    <linearGradient id="peugeot_logo-r" x1="22.059%" x2="62.333%" y1="57.038%" y2="40.174%">
      <stop offset="0%" stop-color="#FFF"/>
      <stop offset="52.068%" stop-color="#CFCECE"/>
      <stop offset="52.068%" stop-color="#CFCECE"/>
      <stop offset="83.516%" stop-color="#4F4C4C"/>
      <stop offset="100%" stop-color="#393536"/>
    </linearGradient>
    <linearGradient id="peugeot_logo-s" x1="47.772%" x2="57.644%" y1="47.771%" y2="62.068%">
      <stop offset="0%" stop-color="#FFF"/>
      <stop offset="20.879%" stop-color="#FFF"/>
      <stop offset="50%" stop-color="#DEDEDE"/>
      <stop offset="50%" stop-color="#DEDEDE"/>
      <stop offset="94.505%" stop-color="#9C9A9B"/>
      <stop offset="100%" stop-color="#959494"/>
    </linearGradient>
    <linearGradient id="peugeot_logo-t" x1="5.577%" x2="97.661%" y1="95.849%" y2="7.783%">
      <stop offset="0%" stop-color="#231F20"/>
      <stop offset="17.931%" stop-color="#F4F4F4"/>
      <stop offset="57.93%" stop-color="#444041"/>
      <stop offset="100%" stop-color="#231F20"/>
    </linearGradient>
    <linearGradient id="peugeot_logo-u" x1="25.377%" x2="117.613%" y1="31.886%" y2="72.01%">
      <stop offset="0%" stop-color="#231F20"/>
      <stop offset="17.931%" stop-color="#F4F4F4"/>
      <stop offset="57.93%" stop-color="#444041"/>
      <stop offset="100%" stop-color="#231F20"/>
    </linearGradient>
    <linearGradient id="peugeot_logo-v" x1="-.026%" x2="99.969%" y1="49.927%" y2="49.927%">
      <stop offset="0%" stop-color="#656263"/>
      <stop offset="28.571%" stop-color="#D3D3D3"/>
      <stop offset="53.296%" stop-color="#656263"/>
      <stop offset="75.824%" stop-color="#393536"/>
      <stop offset="100%" stop-color="#231F20"/>
    </linearGradient>
    <linearGradient id="peugeot_logo-w" x1="-.009%" x2="99.992%" y1="49.994%" y2="49.994%">
      <stop offset="0%" stop-color="#231F20"/>
      <stop offset="17.931%" stop-color="#9E9D9D"/>
      <stop offset="57.93%" stop-color="#444041"/>
      <stop offset="100%" stop-color="#231F20"/>
    </linearGradient>
    <linearGradient id="peugeot_logo-x" x1="-.016%" x2="99.983%" y1="49.984%" y2="49.984%">
      <stop offset="0%" stop-color="#231F20"/>
      <stop offset="17.931%" stop-color="#9E9D9D"/>
      <stop offset="57.93%" stop-color="#444041"/>
      <stop offset="100%" stop-color="#231F20"/>
    </linearGradient>
    <linearGradient id="peugeot_logo-y" x1="-.007%" x2="99.99%" y1="49.995%" y2="49.995%">
      <stop offset="0%" stop-color="#231F20"/>
      <stop offset="17.931%" stop-color="#9E9D9D"/>
      <stop offset="57.93%" stop-color="#444041"/>
      <stop offset="100%" stop-color="#231F20"/>
    </linearGradient>
    <linearGradient id="peugeot_logo-z" x1="0%" x2="99.992%" y1="50.051%" y2="50.051%">
      <stop offset="0%" stop-color="#7B7979"/>
      <stop offset="17.931%" stop-color="#D3D3D3"/>
      <stop offset="100%" stop-color="#231F20"/>
    </linearGradient>
    <linearGradient id="peugeot_logo-A" x1="-.007%" x2="97.529%" y1="53.419%" y2="53.419%">
      <stop offset="0%" stop-color="#444041"/>
      <stop offset="17.931%" stop-color="#D3D3D3"/>
      <stop offset="100%" stop-color="#231F20"/>
    </linearGradient>
    <linearGradient id="peugeot_logo-B" x1=".005%" x2="99.967%" y1="50.286%" y2="50.286%">
      <stop offset="0%" stop-color="#7B7979"/>
      <stop offset="17.931%" stop-color="#BDBCBC"/>
      <stop offset="100%" stop-color="#444041"/>
    </linearGradient>
    <linearGradient id="peugeot_logo-C" x1="41.916%" x2="56.293%" y1="83.711%" y2="25.241%">
      <stop offset="0%" stop-color="#FFF"/>
      <stop offset="11.537%" stop-color="#EEE"/>
      <stop offset="90.659%" stop-color="#5A5758"/>
      <stop offset="100%" stop-color="#5A5758"/>
    </linearGradient>
    <polygon id="peugeot_logo-D" points=".404 .426 97.148 .426 97.148 69.149 .404 69.149"/>
    <linearGradient id="peugeot_logo-F" x1="-.007%" x2="99.988%" y1="50.441%" y2="50.441%">
      <stop offset="0%" stop-color="#FFF"/>
      <stop offset="97.965%" stop-color="#231F20"/>
      <stop offset="97.965%" stop-color="#231F20"/>
      <stop offset="100%" stop-color="#231F20"/>
    </linearGradient>
    <linearGradient id="peugeot_logo-G" x1="39.399%" x2="73.714%" y1="11.285%" y2="102.195%">
      <stop offset="0%" stop-color="#E9E9E9"/>
      <stop offset="6.593%" stop-color="#5A5758"/>
      <stop offset="35.172%" stop-color="#918F90"/>
      <stop offset="60.438%" stop-color="#B7B5B6"/>
      <stop offset="95.862%" stop-color="#706D6E"/>
      <stop offset="100%" stop-color="#B2B1B1"/>
    </linearGradient>
    <polygon id="peugeot_logo-H" points=".404 .426 97.148 .426 97.148 69.149 .404 69.149"/>
  </defs>
  <g fill="none" fill-rule="evenodd" transform="matrix(1 0 0 -1 .305 69.892)">
    <mask id="peugeot_logo-b" fill="#fff">
      <use xlink:href="#peugeot_logo-a"/>
    </mask>
    <g mask="url(#peugeot_logo-b)">
      <path fill="#231F20" fill-rule="nonzero" d="M46.4102847,3.91267399 C45.5138334,6.60507188 41.8999378,13.3637409 39.0591398,17.166799 C38.4448142,17.9957968 38.674423,18.4213654 39.002959,18.6894982 C39.3302736,18.957631 40.3879396,19.8776464 41.6385746,21.3191678 C42.9026442,22.7742188 43.2067537,24.4199147 42.3127451,26.799901 C41.4236217,29.1577479 38.4863392,34.7614778 37.869571,36.618728 C37.1624248,38.7588707 37.091588,39.7120952 37.5178299,40.878104 C38.0197937,42.2519772 38.7525877,42.3097856 39.3046258,42.3011758 C39.6014074,42.295026 39.8236882,41.9801544 39.8249095,41.8362483 C39.8395654,41.2311045 39.8700985,40.4832845 40.4563337,38.9187664 C41.3930886,36.4280831 43.7954315,34.8008367 44.5538733,34.4724355 C45.0814849,34.2424317 45.1767481,34.6544706 45.1303379,34.8537253 C45.0814849,35.05052 44.299838,38.1377373 43.7123815,40.4574552 C43.0992772,42.8891001 42.7902825,43.416756 42.2443509,43.9321122 C41.3747688,44.7635699 40.0520757,45.208818 38.9333435,45.1657691 C36.4381801,45.0673718 35.3353252,42.6394168 35.1985369,42.4143328 C35.0800686,42.2126182 35.0336583,42.071172 34.7796231,42.2482873 C34.0663703,42.7501138 31.9827927,44.5028169 31.791045,45.5999475 C31.6786832,46.2493701 31.5663215,46.3391577 30.9226841,46.5913009 C28.4189714,47.5752746 26.2499013,48.4399414 23.8487797,48.86674 C22.886377,49.0377054 22.8350814,49.1213432 21.711464,48.9110188 C19.803757,48.5518684 18.6337293,48.1090803 17.2011171,47.3526505 C16.4109209,46.9307718 16.3193217,46.6478794 16.1654349,46.4486248 C16.0469666,46.291189 15.9187276,46.103004 15.632938,46.0095265 C15.1566219,45.8533207 13.3869245,45.1891385 12.7799268,44.833678 C12.4013166,44.6122839 12.194913,44.3785902 12.3891034,43.9481017 C12.7286312,43.1879821 13.7472148,41.6037845 14.1917765,41.2052752 C14.461689,40.9654316 15.1383021,40.7993861 15.2995167,40.764947 C15.4595101,40.725588 15.5730931,40.6788493 15.632938,40.7993861 C15.6988894,40.9322225 15.7233159,41.1253273 16.04086,41.3491813 C16.5159547,41.6849623 17.3989715,41.9174261 17.8691809,41.959245 C18.2294713,41.9899942 18.4493095,42.0010639 18.6349506,41.8669975 C18.8193704,41.7304711 19.2456123,41.2729234 19.3933924,40.8129157 C19.5411725,40.352908 19.4483519,40.1807126 19.1930954,40.0724755 C18.9366175,39.9642384 18.1696264,39.7895831 17.2805031,39.7170151 C16.3950437,39.644447 16.1422298,39.8916704 16.0799423,39.9470189 C16.033532,39.9974475 15.916285,40.0737055 15.8259071,39.9531687 C15.6769056,39.7440743 15.4534035,39.608778 15.1065477,39.4353526 C14.9099146,39.3394152 14.8048808,39.1290908 14.9917433,38.8006896 C15.5559946,37.8179459 16.2997805,36.7134355 16.9898282,36.5031111 C17.5394236,36.3309157 17.8337625,36.5117209 18.4517521,36.955739 C19.0037902,37.3579382 19.3628593,37.3554783 19.5143034,37.2435513 C19.6804033,37.1180947 20.0138246,36.8339723 19.928332,36.5498499 C19.7817732,36.0566331 18.7937226,34.8795546 18.6044175,34.6372511 C18.4261043,34.4084772 18.2575617,34.2854805 17.9387963,34.4392264 C17.4710295,34.6643104 10.3812479,38.3689712 9.43350102,38.7404212 C8.40148285,39.1401605 7.72364843,39.2373279 6.70750746,39.2840666 C5.88555689,39.3209657 4.78880858,39.2410178 4.1024249,39.1155612 C3.60168235,39.0220837 3.31711403,38.7834701 2.85056854,38.3492917 C2.20815249,37.7515277 1.53031807,36.9877181 1.46680926,36.3505952 C1.42039898,35.8918175 1.92724814,34.9570425 1.98220768,34.8918543 C2.03716723,34.8217462 2.13120912,34.6925996 2.40600686,34.7233488 C2.68568989,34.754098 3.38672946,35.1218581 4.22455723,34.975492 C4.98299898,34.8426556 5.05994235,34.2424317 5.0990247,33.782424 C5.10513131,33.7037061 5.20039453,33.5253609 5.41534743,33.5290508 C5.71701428,33.5327407 6.18966639,33.5229009 6.73559789,33.259688 C7.40854702,32.9386666 8.73978939,31.8993444 8.94497171,31.6693406 C9.11107167,31.4811556 9.10007976,31.3114202 8.78375703,31.280671 C7.09222429,31.1293851 4.51889614,30.6238686 3.32932726,30.2302791 C2.48417155,29.9523066 1.48757176,29.5697868 1.13583065,28.9535733 C0.736457938,28.254952 0.2308301,27.134452 0.0879352762,26.3337435 C-0.0574021942,25.5379548 0.788974839,24.5502913 1.01491965,24.3301272 C1.16758506,24.1813011 1.27139753,24.0878236 1.54130998,24.2366497 C1.95411725,24.4752633 2.95438102,25.0963966 3.91189847,25.1542051 C4.49324835,25.1874142 4.72529977,24.636389 4.86453063,24.4346744 C5.0049828,24.2354197 5.13932836,24.373176 5.65961208,24.5146222 C6.58171116,24.7643055 11.7259248,24.6695981 13.5420325,24.5835004 C14.3725324,24.5478313 15.5279042,24.4236047 16.3779452,23.9512973 C17.2231009,23.4826799 18.753419,22.0276288 18.753419,22.0276288 C18.753419,22.0276288 16.721137,18.5960207 15.6268314,16.5616552 C14.6131331,14.6822655 13.8742325,13.2702634 13.5090568,12.4523353 C13.1731929,11.7045153 12.8996165,10.6442837 12.9594613,9.80913606 C13.0510606,8.58654881 13.082815,7.95926561 13.0681591,7.40578043 C13.0522819,6.91871348 12.6016136,6.86582489 11.9628615,6.70715914 C11.0810661,6.48084521 9.32358192,6.31848955 7.89951898,5.96548901 C6.6049163,5.6407777 6.1224936,5.33328594 5.88799954,4.32594292 C5.70724369,3.54122394 5.43977389,1.59172615 5.40801949,0.687700362 C5.39336361,0.323630112 5.38725699,0.145284889 5.84647454,0.241222319 C6.11028037,0.292880936 6.8723861,0.403577971 7.84211678,0.47491606 C9.04389889,0.56716359 10.3446082,0.548714084 11.3497572,0.551174018 C13.200062,0.562243722 18.6618197,0.241222319 19.029438,0.204323308 C19.4959835,0.157584559 19.5900254,0.215393011 19.5594923,0.543794216 C19.5143034,0.97674262 19.4361387,2.35922559 19.4165975,3.18330352 C19.3933924,4.01107135 19.2700387,4.84867892 20.0101606,5.65307738 C20.7466186,6.45993577 26.3134101,12.7106284 26.6211835,13.0316498 C26.891096,13.3034725 27.0718518,13.5937447 27.4846591,13.2124549 C27.903573,12.8250153 32.4859779,9.4979544 33.4178476,8.81778262 C34.3484959,8.13761083 35.2144141,7.90637703 36.2745228,7.89161742 C37.0305219,7.87808778 37.2418108,6.54972336 36.5981734,6.42426672 C35.9374375,6.29758011 34.9322885,6.08848571 34.2288063,5.92736003 C33.1442712,5.67152688 32.8120713,5.3160664 32.4859779,4.57931613 C32.2062949,3.95818277 31.8997428,0.904174564 31.8899722,0.639731646 C31.8814229,0.450316719 31.870431,0.174804098 32.1684339,0.237532418 C33.5057829,0.510585105 35.6260001,0.58807303 37.8939974,0.51673494 C40.4966373,0.435557115 43.0247765,0.219082912 43.3789603,0.198173472 C43.7624558,0.171114197 43.7990955,0.228922649 43.9920646,0.530264578 C44.3206005,1.04808071 45.3001018,2.18826017 46.1525854,2.89180133 C46.5788273,3.24111197 46.5873765,3.38624809 46.4102847,3.91267399 M36.411311,22.3781694 C35.7505751,22.1604653 35.3206693,22.3486502 34.9994612,22.657372 C34.6758106,22.9673237 32.0499655,26.1504784 31.2048098,27.1233823 C30.7797893,27.6141392 30.4610239,28.7346392 31.7421921,29.2118664 C32.7925301,29.5968461 34.6758106,30.2056798 35.1985369,30.4836523 C35.7224846,30.7616249 35.9972824,31.0469773 36.0473566,31.5869328 C36.0888816,32.1293483 36.0937669,32.738182 36.0962096,32.9411265 C36.0998735,33.1453011 36.362458,33.3088867 36.4968036,33.0690431 C36.5896242,32.8993076 37.0610549,31.9731425 37.6362982,30.9018411 C38.4961098,29.2930442 39.5806449,27.2820481 39.9336073,26.4173813 C40.2670286,25.5920734 40.1033712,24.9623302 39.5953008,24.3276672 C38.9064744,23.4691502 36.894955,22.5368352 36.411311,22.3781694" transform="translate(22.425 20.028)"/>
    </g>
    <path fill="url(#peugeot_logo-c)" d="M5.34084671,28.0212583 C3.29146624,28.031098 1.21521666,25.6388121 1.61092541,22.0719076 C1.85641139,19.8874861 2.18739,18.8924428 2.82980604,17.4804406 C3.14979274,16.7842793 6.64766262,10.0748089 6.81009861,9.36511796 C7.02749416,8.34916517 6.83452508,7.71450216 6.06020612,7.00481117 C5.2040585,6.22501206 3.78854482,5.33943578 2.83347001,5.00857464 C2.60630388,4.93108671 2.39867892,4.89172777 2.21059514,4.89172777 C1.99442092,4.89172777 1.4533747,4.96675576 0.429905795,6.23608176 L4.95124458,0.161274461 C4.37355867,0.938613641 4.07555579,1.52530793 4.18058959,2.03943416 C4.28440207,2.54741055 5.10879528,3.10089573 6.0540995,3.8524056 C7.00428901,4.59407574 8.05462703,5.5325406 8.53582841,6.80063664 C8.67628058,7.16224696 8.73734675,7.53615694 8.73734675,7.92851643 C8.73734675,9.14003399 8.15477554,10.5114473 7.45251466,11.9997074 C6.54873543,13.9282957 3.98639919,18.138473 3.20719493,21.089164 C3.01788983,21.8136146 2.93117587,22.4642671 2.93117587,23.0435816 C2.93117587,24.7163368 3.63832205,25.7765684 4.50301894,26.1381787 C4.91704753,26.3054542 5.28955113,26.3632627 5.59732459,26.3632627 C6.07364067,26.3632627 6.40461928,26.2291963 6.53896484,26.1590882 C6.78078685,26.0201019 6.81742655,25.7285997 6.81742655,25.4985959 L6.81742655,25.4481672 C6.8149839,25.3965086 6.81009861,25.2722819 6.81009861,25.0877869 C6.81009861,24.4002353 6.90169786,22.8873758 7.69677931,21.4187951 C8.7031497,19.555395 10.3897971,18.5148429 11.054197,18.2344104 C11.1115992,18.2098111 9.5006738,24.2182002 9.2124415,25.3509998 C8.87779893,26.6719844 7.9532572,27.995429 5.36527317,28.0212583 C5.36283052,28.0224883 5.35916655,28.0224883 5.35550258,28.0224883 C5.35183861,28.0224883 5.34695332,28.0224883 5.34084671,28.0212583" transform="translate(56.18 36.676)"/>
    <path fill="url(#peugeot_logo-d)" d="M10.3963012,5.83988359 C10.7907886,5.44137427 10.104405,5.46351367 8.02082744,5.28270851 C5.89694626,5.09575352 3.75963052,4.66403508 2.64089839,4.24215638 C1.82383312,3.93220468 1.32919719,3.71204058 1.00188255,2.95684081 C1.00188255,2.95684081 0.321605485,1.46858067 0.231227562,0.880656414 C0.1860386,0.601453891 0.201915803,0.442788141 0.34603195,0.2090944 C0.425417963,0.08363776 0.620829688,4.08718053 5.75038747,4.35039348 C10.2888248,4.58408723 11.4051143,5.06254441 10.5184336,5.93705099 L10.3963012,5.83988359 Z" transform="translate(22.991 45.509)"/>
    <path fill="url(#peugeot_logo-e)" d="M2.62787577,4.04182053 C2.35063538,4.04182053 2.01721413,3.99139188 1.64104656,3.8339561 C0.926572439,3.5424539 0.269500514,2.63842812 0.238967432,1.09973933 L0.247516695,0.749198714 C0.247516695,0.749198714 0.345222558,1.79590068 0.52842105,2.2878875 C0.983974633,3.6211718 1.83279431,3.89791438 2.41658684,3.89791438 C2.80374632,3.89791438 2.98205952,3.80443689 3.14815949,3.62732163 C3.27639843,3.48587542 3.36311238,3.35549891 3.37898959,3.15501428 C3.39364547,2.55971022 3.41562928,1.87584854 3.98965123,0.333469849 C4.0250696,0.239992352 4.0617093,0.146514856 4.10079165,0.0567272607 C3.61470498,1.30145392 3.55486014,2.45885293 3.55486014,3.04800715 C3.55363882,3.23742207 3.5634094,3.45758618 3.5634094,3.45881614 C3.56585205,3.90898409 3.07488009,4.04182053 2.63398239,4.04182053 C2.63153974,4.04182053 2.63031842,4.04182053 2.62787577,4.04182053" transform="translate(59.127 58.816)"/>
    <path fill="url(#peugeot_logo-f)" d="M10.3604854,10.8078693 C10.5155934,10.3859906 9.90248916,10.4856179 7.81891164,10.3035828 C5.69503046,10.1166278 3.55649339,9.7033589 2.43776127,9.28025023 C1.61825335,8.96906856 1.12483874,8.75136439 0.797524102,7.99370469 C0.797524102,7.99370469 0.117247035,6.50544455 0.0244264656,5.91752029 C-0.0183198492,5.6407777 0.0500742545,5.47842205 0.195411725,5.24595828 C0.412807269,4.90033754 0.552038123,4.82530955 0.869582176,5.0098046 C1.12728139,5.15740065 2.26189072,5.80559329 3.00445527,5.81912293 C3.68351101,5.8351125 3.98029257,5.41815367 4.08044108,5.06269319 C4.14150724,4.84129912 4.44073145,4.95568605 4.49202703,4.96921569 C4.79002991,5.04424368 5.07948352,5.13403128 6.13959213,5.21274917 C7.39999776,5.3049967 12.3170453,5.26194785 14.1209398,5.22012897 C15.7440784,5.18199999 22.1364845,0.131755251 22.2317477,0.105925943 L22.5529557,0.760268418 C20.3814429,2.56709003 12.3146026,9.00965748 10.362928,10.9296361 L10.3604854,10.8078693 Z" transform="translate(23.205 40.366)"/>
    <path fill="url(#peugeot_logo-g)" d="M2.68446857,37.7341594 C2.28387453,37.6837307 2.01029812,37.6640513 1.58894159,37.2680019 C1.17369167,36.8793323 0.451889614,36.3504464 0.172206583,35.8129508 C0.0647301339,35.6087763 0.0109919095,35.4673301 0.039082345,35.282835 C0.0806073365,35.0196221 0.202739665,34.7441095 0.273576415,34.6580118 C0.349298458,34.5657642 0.451889614,34.5227154 0.664399865,34.5817538 C1.09430566,34.6986007 1.85885403,34.799458 2.32173556,34.7871583 C2.65149284,34.7810085 3.1265876,34.6973707 3.34398314,34.4464574 C3.63587941,34.1045266 3.61633823,33.8228641 3.6248875,33.6752681 C3.62610882,33.6113098 3.64931396,33.4870831 3.78976614,33.4661737 C4.07921976,33.4255848 4.39432116,33.4255848 4.73018507,33.3493268 C5.67304664,33.1414624 6.94322285,32.3309141 8.12790643,31.2337835 C10.4227729,29.0997906 13.2757841,25.9080261 16.0115482,23.707615 C17.3965288,22.5994147 19.6657475,21.209552 20.41564,20.4531222 C20.5536495,20.312906 20.2544253,20.2083588 20.0272592,20.3252056 C19.9234467,20.3768643 18.6337293,21.395277 18.3528249,21.4666151 C18.1134456,21.5256535 17.8642956,21.4666151 17.6188096,21.1209943 C15.4729446,18.1358643 13.003429,13.1249785 11.9970586,10.7499121 C11.7613432,10.1853572 11.5586035,9.47689618 11.5891366,8.83731331 C11.620891,8.19527051 11.6880638,6.9148748 11.6990557,6.31342091 C11.7051623,5.72549666 11.5622675,5.48811301 10.8673345,5.37618601 C9.59227304,5.17816131 6.76002436,4.66526505 6.0382223,4.48691983 C5.49473344,4.35531335 5.03917986,4.10563004 4.82911225,3.47096704 C4.5274454,2.55095168 4.28440207,1.13525959 4.26241825,0.790868818 C4.24776237,0.578084517 4.32226309,0.43048847 4.56897039,0.491986823 C5.60709518,0.755199774 7.21313529,0.967984075 9.42495176,0.923705261 C11.6379895,0.875736545 15.5816424,0.483377054 16.0921555,0.436638306 C16.2692474,0.421878701 16.4817577,0.419418767 16.479315,0.624823266 C16.4744297,0.862206908 16.4182489,1.93719812 16.4011503,3.30984135 C16.3877158,4.68125462 17.5736207,5.68736768 19.2175218,7.40317172 C20.8650869,9.1251256 24.8380516,13.06963 24.9882743,13.2073863 C25.0872015,13.3070136 25.1934566,13.402951 24.9931596,13.5997458 C24.7146979,13.8678786 23.4469643,15.1851733 23.3028482,15.3364592 C23.2307901,15.4176371 23.0683541,15.6218116 23.1318629,15.6919197 C23.1904864,15.7644878 23.3431519,15.6476409 23.5385636,15.4852853 C24.3067759,14.8567721 32.7058161,8.04521453 33.29083,7.78077161 C33.8892784,7.51755866 34.2532327,7.43884077 34.7893936,7.3441333 C35.1924303,7.27033528 35.5453928,6.67011136 35.6027949,6.22363331 C35.6614185,5.77592531 35.6345494,5.18308118 35.0153385,5.0293353 C34.3985702,4.87435945 32.8731374,4.58900709 32.3357552,4.44018108 C31.7959303,4.2901251 31.4331973,4.04659162 31.2035885,3.42422829 C30.9715371,2.79694509 30.6698702,1.09467068 30.6637636,0.949534569 C30.657657,0.573164649 30.7553628,0.54364544 31.0423738,0.614983529 C31.3965576,0.698621289 31.8130288,0.817928094 33.4178476,0.872046644 C36.1218573,0.969214042 40.2340528,0.617443463 40.7641071,0.575624583 C40.944863,0.558405044 41.0938644,0.74413007 41.1573732,0.85728704 C41.7301738,1.85356036 41.5677379,2.10816354 42.3371715,2.73790667 C42.7365442,3.06015804 42.9270707,3.12411633 42.6766994,3.69728098 C40.1644374,9.45598674 37.7779717,13.3635921 33.9088196,18.3535684 C31.428312,21.5539427 28.5325545,25.0974778 27.5591598,26.2733263 L15.8857519,32.9987862 C15.1944829,33.3296473 9.79623403,36.1118328 8.86680702,36.5767604 C7.93493735,37.039228 7.18382354,37.4192878 6.23119138,37.634532 C5.56434887,37.787048 4.90239165,37.8399365 4.28562339,37.8399365 C3.69938822,37.8399365 3.15467803,37.7919678 2.68446857,37.7341594" transform="translate(24.426 20.91)"/>
    <path fill="url(#peugeot_logo-h)" d="M4.20216148,13.2252952 C2.52284197,12.7702074 0.37575564,11.888321 0.29759095,11.8452721 C0.252401988,11.8157529 0.259729928,11.7727041 0.28293507,11.7210455 C0.302476243,11.6755367 0.527199726,11.2844072 0.527199726,11.2844072 C0.527199726,11.2844072 0.639561468,11.0187343 0.964433461,10.8354692 C1.28564148,10.6522041 1.60196421,10.5759461 1.68257155,10.5562667 C1.76684286,10.5390471 1.80470388,10.5747162 1.83401564,10.618995 C1.8584421,10.655894 2.17476483,11.2671876 3.33746459,11.5709895 C3.96644608,11.7308852 4.3658188,11.7493347 4.5600092,11.7493347 C4.86289737,11.7419549 5.33188551,11.5918989 5.59324869,11.3348358 C6.0182692,10.9129571 6.3907728,10.2143358 6.45428161,9.87978478 C6.52267571,9.55507348 6.46893749,9.15041432 6.14772946,8.98190883 C5.82530012,8.81709324 4.88732384,8.59323924 4.29742469,8.53420082 C3.68676305,8.47270247 3.09319994,8.50345164 2.74023751,8.70762618 C2.68527796,8.73837535 2.64497429,8.74452519 2.59123607,8.70147634 C2.45811183,8.58954934 2.3775045,8.49853178 2.11736264,8.34232596 C2.0575178,8.30788688 2.0208781,8.23408886 2.07705897,8.12093189 C2.13323984,8.00777492 2.86969778,6.7765779 3.3167021,6.44571676 C3.76004245,6.11116572 3.99697917,6.2612217 4.52825479,6.55764376 C5.06197307,6.85406582 5.42226343,7.2169061 5.97430156,7.1984566 C6.53488894,7.18369699 7.0099837,6.70400984 7.09669765,6.14683476 C7.20173145,5.46912291 6.77060434,5.02756474 6.50801983,4.60937594 C6.25154194,4.19979691 5.72515161,3.58973325 5.45401784,3.24780241 C5.10960467,2.80993413 4.45253275,2.94400054 4.45253275,2.94400054 C4.45253275,2.94400054 7.56202182,1.35242317 9.35126043,0.447167414 C10.0596279,0.0855570986 11.1722534,0.421338105 11.9270312,1.84440999 C12.1029018,2.17527113 13.2216339,4.55894729 13.5013169,5.26863828 C13.7822213,5.97586934 14.1791514,6.76181829 13.5403993,8.11355209 C12.8992046,9.46036602 10.9133329,11.9522793 10.1231367,12.9079637 C9.70788683,13.4073303 9.22057884,13.7135921 8.17268346,13.7701706 C8.03711658,13.7775504 7.8966644,13.7812403 7.75132693,13.7812403 C6.79380948,13.7812403 5.63599501,13.6151947 4.20216148,13.2252952" transform="translate(35.922 50.932)"/>
    <path fill="url(#peugeot_logo-i)" d="M2.34982599,2.2958079 C1.75137758,2.24045938 1.1700277,2.26751866 0.824393214,2.45570362 C0.77065499,2.48399286 0.731572645,2.48891273 0.679055744,2.45078375 C0.54715283,2.34623655 0.46898814,2.26259879 0.213731574,2.11869265 C0.15632938,2.08794347 0.118468358,2.01906531 0.175870552,1.91451811 C0.229608777,1.80997091 0.895229965,0.684551056 1.34711958,0.362299687 C1.79900919,0.0338984821 2.03960988,0.181494529 2.58065609,0.471766755 C3.12292363,0.762038981 3.48932061,1.11626949 4.049908,1.09904995 L4.16226974,2.7103068 C3.84838966,2.55656092 2.9275119,2.34992645 2.34982599,2.2958079" transform="translate(37.861 57.082)"/>
    <path fill="url(#peugeot_logo-j)" d="M0.409952691,1.44536007 C0.367206377,1.41707083 0.373312993,1.32974317 0.395296812,1.28423438 C0.414837985,1.2424155 0.628569559,0.886955025 0.628569559,0.886955025 C0.628569559,0.886955025 0.734824684,0.644651515 1.04259815,0.478605962 C1.34792897,0.313790376 1.60196421,0.23261255 1.68257155,0.212933077 C1.76684286,0.195713538 1.80470388,0.231382583 1.83401564,0.275661397 C1.8584421,0.312560409 2.17476483,0.923854037 3.33746459,1.2276559 C3.96644608,1.38755162 4.3658188,1.40600112 4.5600092,1.40600112 L4.11911149,2.69992647 C2.52284197,2.28542757 0.483232088,1.48471902 0.409952691,1.44536007" transform="translate(35.922 61.276)"/>
    <path fill="url(#peugeot_logo-k)" d="M2.13731574,4.46669976 C1.88205918,4.0583507 1.35322619,3.44705707 1.08331375,3.10635619 C0.738900585,2.66848792 0.23815804,2.85913281 0.23815804,2.85913281 C0.23815804,2.85913281 3.18032582,1.35242317 4.96956443,0.447167414 C5.67793193,0.0855570986 6.74903245,0.33155051 7.50381024,1.75585236 C7.67968079,2.08548354 8.79963424,4.47038966 9.07687462,5.17885069 L2.72599356,6.04966736 C2.83102736,5.37318548 2.39867892,4.88488856 2.13731574,4.46669976" transform="translate(40.304 50.932)"/>
    <path fill="url(#peugeot_logo-l)" d="M4.76804609,1.95933752 C4.01693227,1.91628868 2.24723484,1.75147309 1.74282832,1.63708615 C1.25307769,1.52023928 0.440897704,0.854827105 0.333421256,0.739210202 C0.14900144,0.544875407 0.15266541,0.381289788 0.289453617,0.32594127 C0.406700652,0.280432489 0.663178541,0.319791435 0.872024822,0.337010974 C1.49123573,0.391129524 3.17788318,0.444018108 5.08803279,0.446478042 C6.07852597,0.447708009 7.15695442,0.436638306 8.00821675,0.425568602 C8.89367613,0.413268932 9.53364953,0.402199228 9.57761717,0.405889129 C8.84115923,1.21274752 8.21584171,2.19303126 7.96791308,2.20533094 C7.96180647,2.20533094 7.95569985,2.20533094 7.94715059,2.20533094 C7.59540948,2.20533094 4.97567104,1.97040723 4.76804609,1.95933752" transform="translate(28.09 45.509)"/>
    <mask id="peugeot_logo-n" fill="#fff">
      <use xlink:href="#peugeot_logo-m"/>
    </mask>
    <g mask="url(#peugeot_logo-n)">
      <path fill="#7F7D7E" fill-rule="nonzero" d="M0.214129036,0.222772814 L0.227563592,0.257211891 L0.214129036,0.222772814 C0.139628316,0.251062056 0.0919967078,0.318710244 0.0932180311,0.397428136 C0.0932180311,0.487215731 0.144513609,0.58807303 0.245883441,0.695080164 C0.36068783,0.816846903 1.16553987,1.48102911 1.67483168,1.60402582 C2.18534481,1.71964272 3.95015695,1.88322834 4.70493474,1.92627719 C4.91133837,1.93734689 7.52619152,2.1722706 7.88526056,2.17350057 C7.89380982,2.17350057 7.90113776,2.17350057 7.9084657,2.1722706 C7.99273701,2.16612077 8.07822964,2.09601264 8.18570609,1.98900551 C8.29196121,1.88076841 8.41775751,1.73194239 8.55698836,1.55728707 C8.8366714,1.20920639 9.17619927,0.762728352 9.54259625,0.361759091 L9.59511315,0.305180606 L9.51816979,0.299030771 C9.51084185,0.299030771 9.49862861,0.299030771 9.47786612,0.299030771 C9.16642868,0.299030771 7.13414674,0.340849651 5.29727653,0.340849651 C5.20689861,0.340849651 5.11774201,0.340849651 5.02736408,0.340849651 C3.11721447,0.33715975 1.43178835,0.284271166 0.81502009,0.231382583 C0.678231882,0.219082912 0.520681179,0.198173472 0.392442235,0.198173472 C0.324048131,0.198173472 0.262981967,0.204323308 0.214129036,0.222772814 M0.392442235,0.273201463 C0.51335324,0.273201463 0.669682619,0.292880936 0.80769215,0.305180606 C1.43056702,0.359299157 3.11599315,0.410957773 5.02736408,0.414647675 C5.11652068,0.414647675 5.20689861,0.414647675 5.29727653,0.414647675 C7.06208867,0.414647675 9.00765666,0.376518696 9.43267716,0.372828795 C8.90140153,0.965672917 8.43363471,1.63354503 8.13318919,1.93611693 C8.03181935,2.04189409 7.9451054,2.09847258 7.90480173,2.09847258 C7.89991644,2.09847258 7.89380982,2.09847258 7.88526056,2.09847258 C7.5359621,2.09847258 4.91744499,1.86354887 4.70982003,1.85247917 C3.95870621,1.80943032 2.18778746,1.6458447 1.69070888,1.53145776 C1.21805677,1.42322066 0.397327528,0.752888616 0.299621665,0.644651515 C0.205579773,0.545024183 0.166497428,0.456466555 0.166497428,0.397428136 C0.167718751,0.345769519 0.18970257,0.315020343 0.242219471,0.291650969 C0.273973877,0.279351298 0.328933424,0.271971496 0.392442235,0.273201463" transform="translate(28.151 45.578)"/>
    </g>
    <path fill="url(#peugeot_logo-o)" d="M13.6515397,45.8347224 C12.9920251,45.4312932 12.9639347,44.9368465 12.5010532,44.6662537 C12.0418356,44.395661 10.9841697,44.1533575 9.87276547,43.6527609 C9.25843986,43.3772482 9.25599721,43.3317395 9.40255601,42.9836588 C9.4599582,42.8385227 9.85933091,42.1066923 10.0620706,42.1066923 C10.2623676,42.1005424 10.5054109,42.2050896 10.7508969,42.304717 C11.0794329,42.4350935 13.2704868,43.2899206 15.0108725,43.6638306 C16.9491126,44.0820194 19.0326901,44.1176884 19.772812,43.3292795 C20.898872,42.1288317 22.8749731,39.4388937 23.4734215,38.2728849 C24.0633207,37.1179459 24.0034758,36.5570809 23.6114311,35.3738526 C23.2511407,34.2779519 21.8857013,31.4342681 21.4838859,30.8451139 C21.0796279,30.2547297 20.5910986,29.9275585 19.4222922,30.4084756 C18.1692145,30.9275217 13.5538338,33.3124278 12.5499061,33.8228641 C11.8708504,34.1672549 9.0190605,35.6223059 6.85976094,36.7120568 C6.06467948,37.1154859 5.40638623,37.4082181 4.68946947,37.5902532 C3.1017492,37.9973723 1.3967819,37.8141072 0.610249709,37.6837307 C0.251180665,37.6234623 0.0276785047,37.0429179 0.0435557073,36.8067642 C0.0582115867,36.6136594 0.428272541,36.6382587 0.877719508,36.6628581 C1.10977093,36.6763877 1.36258485,36.6899173 1.60074289,36.6726978 C2.1625516,36.6333389 4.08613577,36.4242445 5.19631863,35.9703866 C6.36878898,35.4931594 12.2384687,32.3087747 13.7199338,31.5068362 C25.0110675,25.3188719 29.8426224,21.3362386 38.5689773,6.56802409 C38.9585794,5.90753178 39.1466632,5.09821346 38.5298949,4.9137184 C37.6358863,4.65173541 33.9145142,3.93712455 32.7884542,3.5656745 C31.8419286,3.2520329 31.7161323,3.17700491 31.5781228,2.70592753 C31.4230148,2.16720196 31.1824141,1.10205048 31.2398163,0.886806249 C31.2642427,0.798248621 31.189742,0.683861684 31.3814898,0.683861684 C32.4281638,0.683861684 36.1837329,0.680171783 39.0770478,0.404659162 C39.4263462,0.36776015 39.4458874,0.37636992 39.6657256,0.712150927 C39.9185395,1.10328045 40.9200246,2.25698955 41.5783178,2.74774641 C41.8543369,2.95438087 41.6686958,3.33936056 41.6235068,3.4648172 C40.7966709,5.56191104 38.4602795,10.1115592 35.2616338,14.8432425 C32.1216117,19.4986678 26.7990848,25.8022489 26.0638482,26.8489509 C25.3444888,27.8759734 25.0623631,29.0309125 26.5621481,29.5069097 C27.5416494,29.8205513 29.9000246,30.3125381 30.86487,30.5843609 C31.8040676,30.8438839 31.8724617,31.1501457 31.9506264,31.8819761 C32.0300124,32.6728449 31.8162808,36.5128021 31.3436287,38.8005408 C31.2447016,39.2753081 30.9283788,39.6713575 30.5497686,39.9419502 C30.2139047,40.176874 28.919302,41.3145935 28.2036066,42.1374414 C27.3804347,43.0832861 27.0067098,43.9750122 26.8723642,44.6613338 C26.8723642,44.6613338 26.8491591,44.8076999 26.6879444,44.9614458 C26.6280996,45.0254041 26.5816893,45.0561533 26.4803194,45.1151917 C25.069691,45.9896983 20.0830281,47.3623415 19.0656658,47.4508991 C19.0119276,47.455819 18.9471974,47.4582789 18.8726967,47.4582789 C17.9884587,47.4595089 15.7277893,47.0905188 13.6515397,45.8347224" transform="translate(26.151 20.91)"/>
    <path fill="url(#peugeot_logo-p)" d="M0.298812273,36.6001298 C0.648110731,36.6001298 1.46273336,36.6259591 2.00866487,36.5656907 C3.06022421,36.4488438 4.38658129,36.1561116 5.22196642,35.8314003 C6.40542868,35.3677028 11.9661136,32.0295722 13.4036111,31.2202538 C17.7344234,28.7480201 21.027111,26.4750409 24.1170589,23.9683681 C28.8411373,20.1357907 32.9191358,15.6919197 38.031595,6.67503122 C38.2331134,6.32572058 38.3405898,6.05758776 38.3405898,5.73041652 C38.3589097,5.22736 37.9290039,5.04532487 37.7836664,5.00596593 C36.9030923,4.73906308 33.294082,3.91990501 32.2254241,3.54845496 C31.317981,3.22620359 31.1494383,3.02325903 31.0199781,2.60015036 C30.9723465,2.4230351 30.8184597,1.56574807 30.6389252,1.33697419 C30.460612,1.10328045 30.0441408,1.05531174 29.6020217,1.05531174 C29.3296666,1.05531174 29.1940998,1.03932216 29.2221902,1.34435399 C29.247838,1.64815586 29.4273725,2.47346375 29.5299637,2.94700107 C29.6313335,3.42299832 29.8279665,3.77968877 30.2578723,4.04044179 C30.6877781,4.3048847 32.1838992,4.54841818 33.0266122,4.75628261 C33.8656613,4.96414705 33.9132929,5.35773651 33.8974157,5.99608941 C33.8974157,5.31960753 33.664143,5.15479194 32.8189873,4.96414705 C31.9616183,4.77227219 30.5216782,4.58531719 30.0478047,4.25814596 C29.5873659,3.94327439 29.4090527,3.50294618 29.32356,3.1548655 C29.0365491,1.94949779 28.839916,1.06761141 28.8728917,0.771189345 C28.9009822,0.507976395 29.0047947,0.471077383 29.2966909,0.504286494 C29.5873659,0.537495604 30.3128319,0.640812837 31.4010309,0.68140175 C31.7234603,0.68140175 31.7014765,1.07622118 31.6978125,1.51162951 C31.6978125,1.6690653 31.7051404,2.13891271 31.7857478,2.36891655 C31.8663551,2.59646046 32.039783,2.80801479 32.3145807,2.89288252 C32.9191358,3.08229745 36.2728895,3.99370304 37.9766355,4.50536933 C38.722864,4.72922334 39.0355228,4.96783695 38.9671287,5.65169863 C38.9072838,6.25315252 38.3613523,7.14487864 37.3904003,8.67495766 C36.4133417,10.2173364 35.1859118,12.32304 33.5517812,14.6525976 C30.6499171,18.7902067 27.793242,22.0201002 24.2440765,24.8477945 C21.6218954,26.9350486 18.8726967,28.6090338 16.8550707,29.7984119 C14.8374446,30.98902 6.31993605,35.6813444 4.99846426,36.0983032 C3.79790347,36.477133 2.84404999,36.6013597 1.99034502,36.6886874 C1.40899513,36.7477258 0.924129793,36.7046769 0.408731368,36.7046769 C-0.079797944,36.7046769 0.0924086386,37.1031863 0.160802742,37.261852 C0.109507164,37.1486951 -0.1823891,36.6001298 0.298812273,36.6001298" transform="translate(26.151 20.91)"/>
    <path fill="url(#peugeot_logo-q)" d="M13.3779633,20.626007 C13.05187,20.2287276 11.3810997,17.5572392 10.0254309,15.060406 C9.04470828,13.2523545 7.86979529,10.6891031 7.64140784,10.0679697 C7.43256155,9.5021849 7.39470053,8.98190883 7.4142417,8.34478589 C7.4350042,7.71135286 7.540038,6.68187043 7.57545638,5.94143026 C7.61209608,5.23296924 7.43256155,4.91932764 6.69976759,4.78526123 C6.07811404,4.67333423 2.77565589,4.11492918 1.96225458,3.91567452 C1.14641063,3.71641985 0.891154064,3.30930076 0.732382038,2.70784687 C0.571167365,2.10762294 0.337894618,0.969903413 0.328124032,0.709150397 C0.322017415,0.455777183 0.353771821,0.405348534 0.589487214,0.437327677 C0.823981284,0.470536788 1.32350251,0.514815602 1.52624217,0.529575207 C1.73875242,0.544334811 1.69600611,0.703000562 1.75951492,0.928084533 C1.81935976,1.12979913 1.86210607,1.46927004 1.9842384,1.99200604 C2.1051494,2.51351207 2.26880672,2.9194012 2.98572349,3.1321855 C3.70386158,3.34619977 6.9525815,3.87262567 7.50217698,4.02391162 C8.05055113,4.1776575 8.40229224,4.41504114 8.46213708,4.96852632 C8.52442457,5.51709163 8.41206283,6.6904802 8.39618562,7.64370467 C8.38152974,8.64366789 8.36931651,9.08891596 8.92746125,10.170057 C10.0058897,12.2437815 13.3547581,17.15381 15.6154275,19.9962638 C15.6154275,19.9962638 15.4029173,20.1549296 15.1342262,20.3517243 C14.8008049,20.5977177 14.3782271,20.9015196 14.1449543,20.9765476 C14.0728962,20.998687 14.0069448,21.0097567 13.9458786,21.0097567 C13.735811,21.0097567 13.5819243,20.8781502 13.3779633,20.626007" transform="translate(28.594 21.413)"/>
    <path fill="url(#peugeot_logo-r)" d="M1.24941372,3.82096705 C0.639973399,2.47169319 0.466545493,1.70296378 0.466545493,1.0338617 C0.466545493,0.452087282 0.525169011,0.246682783 0.525169011,0.246682783 C0.495857252,0.835837004 0.713252796,1.37456258 1.08453507,1.91451811 C1.58405629,2.63773874 2.35593261,3.37571898 3.30245815,4.36584246 C4.95979384,6.09763608 9.00115258,10.0814994 9.14649005,10.2254055 C9.23686797,10.3176531 9.34556574,10.4467996 9.12206358,10.6645038 C8.72146955,11.0507134 8.51140194,11.2991668 7.87997781,11.9362897 C7.49526097,12.3249593 7.22779117,12.559883 7.24244705,12.6951794 C7.24244705,12.6951794 7.24244705,12.6951794 7.24244705,12.6951794 C7.22779117,12.6951794 2.72355092,7.59450599 1.24941372,3.82096705" transform="translate(40.304 23.873)"/>
    <path fill="url(#peugeot_logo-s)" d="M0.35743579,31.6802615 L37.7042804,0.0614983529 C38.0841119,0.145136113 38.318606,0.423108668 38.3369258,0.693701421 C38.3589097,1.00242315 38.2978435,1.28408561 38.0951038,1.63954609 C32.8983733,10.7831212 29.0072373,15.0523369 24.2697243,18.9070536 C23.4502164,19.5749257 22.6209379,20.2403379 21.756241,20.8860706 C19.3575621,22.6769027 16.7231677,24.3988565 13.5342927,26.2253576 C12.6195215,26.7419438 10.0413081,28.2720228 7.97605041,29.4478713 C6.78526022,30.1255832 5.76423395,30.6852182 5.33310684,30.8647934 C4.50504965,31.214104 3.1909058,31.4982264 2.11980528,31.6322928 C1.77661344,31.6753416 1.41632307,31.6851814 1.0401555,31.6851814 C0.81909599,31.6851814 0.590708537,31.6814915 0.35743579,31.6802615" transform="translate(26.151 25.83)"/>
    <path fill="url(#peugeot_logo-t)" d="M0.352962428,6.09571674 C0.453110937,6.03544835 0.54715283,5.97517997 0.619210903,5.89892201 C0.869582176,5.66153837 0.925763047,5.42784463 0.933090986,5.37741598 C1.05644464,4.75997252 1.39597251,3.93097472 2.17517676,3.03678867 C2.84568324,2.25821952 4.23066384,1.10574039 4.52011746,0.901565854 C4.70453728,0.776109214 4.88651445,0.649422607 5.04040118,0.475997252 C5.12955778,0.943384734 5.27611657,1.45874093 5.48374153,1.96302742 C5.44954448,1.90890887 5.41656875,1.83634082 5.35428126,1.75639296 C5.28466583,1.66045553 5.14421366,1.53745882 4.93781002,1.52761909 L4.93170341,1.52761909 L4.9158262,1.52761909 C4.73873433,1.52884905 4.60927406,1.60510701 4.50301894,1.680135 C3.75434776,2.24222995 1.65611437,3.88546594 1.35444752,5.27901861 C1.16514241,5.93213112 1.40330045,5.63447909 0.729129998,5.9776399 C0.541046213,6.05266789 0.360290368,6.12646592 0.174649229,6.19534407 C0.23815804,6.16213496 0.299224204,6.12892585 0.352962428,6.09571674" transform="translate(52.517 60.268)"/>
    <path fill="url(#peugeot_logo-u)" d="M5.4308127,8.7814242 C4.44398349,8.50837151 2.01110751,8.00900489 1.07313123,7.71504276 C0.374534316,7.46043958 0.285377717,7.23658557 0.263393898,6.884815 L0.263393898,6.88112509 C0.263393898,6.55518382 0.412395338,6.04720743 0.726275421,5.61179909 C1.08900844,5.08906309 2.85015661,3.07437705 4.81160179,0.589843592 C5.03876792,0.313101004 5.13036717,0.207323837 5.31967228,0.0142190092 C5.24761421,0.108926473 2.47643168,3.6401619 1.62639068,4.61552577 C1.38456867,4.9021081 1.10732828,5.28585782 1.10366431,5.79014431 C1.10122167,6.29197087 1.48349586,7.0078117 2.27247069,7.28209436 C3.32647269,7.66953398 5.24395024,8.29558721 5.67996265,8.53420082 C6.10376182,8.78019423 6.23077945,8.88720137 6.29306693,9.17870356 C6.07445007,9.00035834 5.79110307,8.88351147 5.4308127,8.7814242" transform="translate(51.8 42.322)"/>
    <path fill="url(#peugeot_logo-v)" d="M3.62936086,3.2520329 C1.75707227,3.20775409 0.495445321,1.60633698 0.13026966,0.109467068 C0.5101012,1.44767123 1.71921125,3.0281789 3.63791012,3.0281789 C6.07811404,3.0281789 7.09547633,2.09955377 7.43744685,0.715840828 C7.01242635,2.6210598 5.39173035,3.25326287 3.77591965,3.25326287 C3.72706672,3.25326287 3.67821379,3.25326287 3.62936086,3.2520329" transform="translate(57.906 61.498)"/>
    <path fill="url(#peugeot_logo-w)" d="M15.8246857,7.8515691 C13.932856,5.90330128 13.075487,5.29815749 13.1133481,4.08663994 C13.1365532,3.37325905 13.1927341,1.61317618 13.1951767,1.3511932 C13.1951767,1.17284798 13.2122752,1.00188256 12.913051,0.844446773 C12.7664923,0.764498915 12.5112357,0.764498915 12.3817754,0.764498915 C11.866377,0.764498915 6.88337801,1.2540258 5.13444307,1.2540258 C3.38550813,1.2540258 1.88572315,1.05846104 0.984386564,0.830917136 C0.836606447,0.796478058 0.459217553,0.819847432 0.306552143,1.04739134 C0.225944807,1.16546818 0.199075695,1.28600495 0.191747755,1.39055215 C0.153886733,1.04739134 0.122132328,0.64519211 0.122132328,0.472996722 C0.436012411,0.534495075 1.17857697,0.637812308 2.13487309,0.710380364 C3.35986034,0.807547762 4.74728359,0.790328223 5.67060399,0.790328223 C6.59514571,0.790328223 13.4540973,0.432407809 13.479745,0.431177842 C13.4345561,0.962523611 13.366162,2.22569978 13.3466208,3.01410866 C13.3405142,3.2182832 13.3405142,3.21582326 13.3234157,3.78037814 C13.3234157,4.3978216 13.4406627,5.1185823 14.0439964,5.76185507 C14.3688684,6.11731555 15.632938,7.52931773 16.970287,9.02864758 C16.5318319,8.5833995 16.1361232,8.17382047 15.8246857,7.8515691" transform="translate(28.09 20.183)"/>
    <path fill="url(#peugeot_logo-x)" d="M0.29392698,5.51640226 C0.488117381,5.48811301 0.655438671,5.37741598 0.805661434,5.2384297 C1.16106651,4.90756856 5.78377513,1.53991876 6.70221023,0.873276611 C7.09425501,0.592844122 7.4557667,0.394819426 7.82949162,0.264442918 C7.51561154,0.485836988 7.05273001,0.840067501 6.44573234,1.30991492 C5.56149429,1.99869647 4.43299158,2.89534245 3.29716093,3.80182818 C2.33842215,4.56809765 1.37724073,5.34174693 0.558954132,6.00715911 C0.545519576,5.71688689 0.367206377,5.56191104 0.29392698,5.51640226" transform="translate(49.357 28.29)"/>
    <path fill="url(#peugeot_logo-y)" d="M6.49458527,18.458805 C6.44573234,18.3382682 6.38710883,18.1746826 6.38710883,17.9409889 C6.38710883,17.6519466 6.4799294,17.2509774 6.84876903,16.7147117 C7.06982854,16.3998402 7.28356011,16.0886585 7.48874243,15.7897765 C10.7008227,11.027344 12.9395082,6.42234738 13.7858853,4.27236496 C13.9715264,3.7520889 13.9336654,3.49502578 13.7663441,3.26256201 C13.7663441,3.26256201 12.0943525,1.53937816 11.8928342,1.21712679 C11.8061202,1.08798025 11.7413901,0.97974315 11.6253644,0.878885851 C11.5117813,0.774338651 11.2162211,0.70792043 10.936538,0.731289804 C8.46580105,0.963753578 5.78377513,1.06338091 4.43909819,1.06338091 C2.69016326,1.06338091 1.67035832,0.892415489 1.08900844,0.877655884 C0.773907029,0.869046115 0.554068839,0.942844138 0.516207817,0.995732722 C0.511322524,1.00434249 0.507658554,1.01172229 0.500330614,1.0191021 C0.475904149,0.771878717 0.460026946,0.586153691 0.45392033,0.502515931 C1.51280761,0.695620759 2.94053453,0.776798585 4.52581215,0.776798585 C5.02899734,0.776798585 5.54683841,0.768188816 6.07811404,0.754659178 C8.68563924,0.673481352 11.7169636,0.431177842 11.7242916,0.431177842 C11.7316195,0.434867743 13.1788876,2.292118 14.0753389,3.04116794 C14.2341109,3.16785455 14.2951771,3.15801481 14.2951771,3.28224148 C14.2951771,3.36710921 14.2487668,3.52577496 14.1718234,3.74224916 C13.2387324,6.43218712 9.68223904,13.0752392 6.91716313,16.7676003 C6.6533573,17.1206009 6.47748675,17.5916782 6.47748675,17.9200794 C6.47626543,18.346878 6.69732494,18.6580597 6.92449107,18.8351749 C7.1150175,18.9938407 7.58522696,19.3972699 8.2007739,20.0134834 C7.24569909,19.2914927 6.57641393,18.7183281 6.49458527,18.458805" transform="translate(54.242 20.183)"/>
    <path fill="url(#peugeot_logo-z)" d="M1.93538547,2.94646048 C0.882604801,2.86897255 0.370870347,2.74105598 0.268279191,2.71522667 C0.165688035,2.69185729 0.103400548,2.6992371 0.098515255,2.6992371 C0.124163044,2.65741822 0.164466712,2.57747036 0.184007885,2.54549121 C0.210876997,2.55533095 0.251180665,2.57132052 0.329345355,2.59345993 C0.963212138,2.77549505 2.37506185,2.86159275 4.13743134,2.86774258 C5.81675085,2.86774258 7.65117842,2.85544291 8.60136793,2.80993413 C9.45140894,2.76934522 10.6519697,2.65372832 11.6107085,2.12607245 C12.5022745,1.62547586 14.4356292,0.274972026 14.5272285,0.356149851 C13.7431389,0.913324929 12.9126391,1.47910978 12.160304,1.94157739 C11.1685895,2.56763062 10.2257279,2.99934906 9.94482354,2.99073929 C6.92815504,3.03870801 6.92815504,3.03870801 5.15235099,3.03870801 C3.76981304,3.03870801 2.45689051,2.98581942 1.93538547,2.94646048" transform="translate(27.373 42.322)"/>
    <path fill="url(#peugeot_logo-A)" d="M0.59192986,3.0091888 C0.638340145,3.00426893 0.707955572,3.00672886 0.793448202,3.00795883 C1.08290182,3.01533863 1.56166054,3.0202585 1.99645163,2.8111641 C2.76344265,2.42864434 4.71389593,0.977283216 5.01434146,0.662411649 C5.38195977,0.234383113 5.75324204,0.27743196 5.4259274,0.562784317 C4.28276881,1.63285566 2.55215373,2.86651262 1.73875242,3.03624807 C1.45174145,3.10266629 1.04992609,3.13464544 0.721390128,3.14817507 C0.472240179,3.16416465 0.490560028,3.45812677 0.417280631,3.51224532 C0.425829894,3.46058671 0.440485773,3.01902853 0.59192986,3.0091888" transform="translate(27.373 50.932)"/>
    <path fill="url(#peugeot_logo-B)" d="M2.96537292,1.59772721 C2.42676936,1.58665751 1.06132993,0.902795821 0.85248365,0.76503951 C0.534939597,0.586694287 0.396930066,0.581774419 0.197854371,0.801938522 C0.289453617,0.579314484 0.443340351,0.445248075 0.582571205,0.491986823 C0.723023382,0.541185506 2.3608179,1.39970251 3.08628393,1.39970251 C3.32199932,1.39970251 3.39161475,1.39355268 3.57847721,1.31729472 C3.46611547,1.50916958 3.3415405,1.59895718 3.00201262,1.59895718 C2.98979939,1.59895718 2.97758616,1.59895718 2.96537292,1.59772721" transform="translate(23.205 44.279)"/>
    <path fill="url(#peugeot_logo-C)" d="M2.07542572,1.40954225 C1.70414344,1.34927386 0.515795886,1.02702249 0.391220912,0.983973647 C0.262981967,0.943384734 0.194587863,0.901565854 0.110316557,0.762579576 C0.0260452507,0.6272832 -0.0105944477,0.328401205 0.0248239274,0.215244235 C0.0602423025,0.0959374305 0.179931984,0.00737980235 0.363130476,0.084867727 C0.614723072,0.190644894 2.08641762,0.735520301 2.34533816,0.817928094 C2.4576999,0.856057072 2.50411019,0.912635557 2.52609401,0.971673976 C2.56395503,1.06884137 2.57494694,1.19675795 2.56395503,1.29761525 C2.54929915,1.41323215 2.47601975,1.44767123 2.36976463,1.44767123 C2.28793597,1.44767123 2.18534481,1.42676179 2.07542572,1.40954225" transform="translate(40.09 65.188)"/>
    <mask id="peugeot_logo-E" fill="#fff">
      <use xlink:href="#peugeot_logo-D"/>
    </mask>
    <g mask="url(#peugeot_logo-E)">
      <path fill="#231F20" d="M1.93904944,1.22996706 C2.10392808,1.25948627 2.18453542,1.2434967 2.19308468,1.15247913 C2.20041262,1.05777167 2.19308468,0.999963218 2.18697806,0.963064207 C2.17720748,0.913865524 2.15766631,0.885576282 2.07583765,0.854827105 C1.90729503,0.795788687 0.831309223,0.40957903 0.572388688,0.300111962 C0.334230648,0.199254663 0.213319643,0.255833148 0.192557148,0.35546048 C0.171794652,0.458777713 0.209655673,0.619903397 0.249959342,0.692471454 C0.292705657,0.763809543 0.354993144,0.811778258 0.44292842,0.840067501 C0.637118822,0.910175623 1.63493994,1.17338857 1.93904944,1.22996706" transform="translate(40.184 65.241)"/>
    </g>
    <path fill="url(#peugeot_logo-F)" d="M7.30268936,13.9706552 C4.25426645,13.8907074 1.59666699,12.5906322 0.104209941,11.9756486 C1.16798252,12.3434088 3.75230258,13.4097902 6.63462552,13.5832156 C8.21868182,13.680383 8.85376992,13.5450866 9.43389848,12.8895142 C10.2766115,11.9547392 12.2380567,9.30170027 12.9366536,7.95488634 C13.2126727,7.42108063 13.334805,6.94262345 13.2981653,6.53427438 C13.2419845,5.91560095 13.0221463,5.46174311 12.8487184,5.05462401 C12.5446089,4.35231282 11.4222128,2.05596433 11.2280224,1.72264325 C10.4109571,0.297111433 9.62808888,0.346310115 8.7951464,0.54064491 C8.83789272,0.517275536 9.22016691,0.335240411 9.57068669,0.192564233 C10.5404174,-0.207175061 11.154743,0.347540082 11.7092238,1.39670198 C11.8887583,1.72387322 13.0795485,4.26006529 13.3665594,4.99189569 C13.5485366,5.45067341 13.7573829,5.90576122 13.7573829,6.4887656 C13.7573829,6.87005539 13.6523491,7.45674968 13.3934286,8.00039512 C12.737578,9.39271783 10.6625497,12.038377 9.83449252,13.0358803 C9.19207647,13.8009198 8.6058413,13.9743451 7.5933643,13.9743451 C7.50054373,13.9743451 7.40283786,13.9731152 7.30268936,13.9706552" transform="translate(36.426 50.932)"/>
    <path fill="url(#peugeot_logo-G)" d="M10.3173271,14.6791162 C9.23523472,12.9448627 7.67560489,10.357012 7.43134023,9.78753725 C7.20539542,9.26480125 7.13211603,8.788804 7.12478809,8.17136054 C7.12478809,8.1652107 7.21394469,5.37195551 7.21394469,5.35596594 C7.21394469,5.0103452 7.16264911,4.72745278 6.97945062,4.50851864 C6.79258816,4.29204444 6.51046248,4.1850373 6.11963903,4.12845882 C5.47722298,4.03498132 2.44711992,3.56390394 1.61417745,3.39293852 C0.806882758,3.2182832 0.472240179,2.84437321 0.292705657,2.30441767 C0.162024066,1.91574808 0.0130226253,1.25525577 0.0154652719,0.964983545 C0.0154652719,0.964983545 0.00447336237,0.806317795 0.0154652719,0.806317795 C-0.00773987044,0.497596063 0.102179225,0.514815602 0.102179225,0.514815602 C0.102179225,0.514815602 3.60981969,0.786638322 5.69706117,0.661181682 C7.78552398,0.538184976 10.6666256,0.263902322 10.6666256,0.263902322 C10.6666256,0.263902322 7.6340799,0.834607037 5.57126487,0.963753578 C4.54291067,1.02525193 3.34601386,1.00065259 2.40315229,0.974823282 C1.45540542,0.95022394 0.761693796,0.924394632 0.749480563,0.988352919 C0.731160714,1.07445061 0.678643813,1.20605709 0.700627632,1.46066027 C0.734824684,1.62547586 0.777570999,1.81366082 0.834973193,2.01168551 C0.969318754,2.52827168 1.20869812,2.98335949 2.00744354,3.17031448 C2.77321324,3.36587924 5.71782367,3.8566361 6.27596841,3.99439241 C6.82800653,4.13460865 7.18585425,4.34124312 7.26157629,4.79510096 C7.28233879,4.93408724 7.30065864,5.24649887 7.29943732,5.53554113 C7.29943732,6.13207516 7.19440351,7.71258283 7.19806748,7.81098019 C7.21638733,8.78388413 7.25913365,9.29801036 7.89055778,10.3496322 C8.86883773,11.9879483 12.5523487,17.6273473 14.3843337,19.5842249 C14.5015807,19.7084515 14.5553189,19.8142287 14.7580586,19.7810196 C14.7189762,19.7896294 14.6786726,19.801929 14.6383689,19.8216085 C14.6066145,19.8375981 14.4600557,19.9470652 14.2670866,20.0909713 C13.8103117,19.5719252 11.752382,16.9840745 10.3173271,14.6791162" transform="translate(29.815 21.413)"/>
    <mask id="peugeot_logo-I" fill="#fff">
      <use xlink:href="#peugeot_logo-H"/>
    </mask>
    <g mask="url(#peugeot_logo-I)">
      <g transform="translate(0 .28)">
        <path fill="#0D224A" fill-rule="nonzero" d="M0,8.60976941 L0,0.377599887 L2.25089881,0.377599887 L2.25089881,2.91010206 L4.26730354,2.91010206 C8.59078795,2.91010206 10.7940552,4.30734464 10.7940552,5.85218326 C10.7940552,7.51140882 8.42835196,8.60976941 4.46271527,8.60976941 L0,8.60976941 Z M2.25089881,3.79813828 L2.25089881,7.69098401 L4.02181756,7.69098401 C5.85135984,7.69098401 8.26591596,7.37980235 8.26591596,5.85218326 C8.26591596,4.81532103 7.48182642,3.79813828 3.72869998,3.79813828 L2.25089881,3.79813828 Z" transform="translate(.404 .029)"/>
        <path fill="#0D224A" d="M9.77058624,0 L9.77058624,1.03563226 L4.2233359,1.03563226 C3.03132438,1.03563226 2.68813254,1.5792777 2.68813254,2.49929306 L2.68813254,3.70466078 L9.19900695,3.70466078 L9.19900695,4.73783311 L2.68813254,4.73783311 L2.68813254,7.19899719 L9.49334586,7.19899719 L9.49334586,8.23216952 L0.437233734,8.23216952 L0.437233734,2.45009438 C0.437233734,0.904025788 1.07354316,0 3.14612877,0 L9.77058624,0 Z" transform="translate(14.263 .407)"/>
        <path fill="#0D224A" d="M10.9919095,8.60976941 L8.74101072,8.60976941 L8.74101072,1.6616855 C8.12057849,1.44521129 7.29007866,1.24964653 6.08096861,1.24964653 C4.35157485,1.24964653 2.63805829,1.69243467 2.63805829,3.22251369 L2.63805829,8.60976941 L0.38715948,8.60976941 L0.38715948,3.05769811 C0.38715948,0.788408884 2.63805829,0.116846871 5.11856587,0.116846871 C7.48426906,0.116846871 9.41029588,0.610063661 10.9919095,1.28162567 L10.9919095,8.60976941 Z" transform="translate(27.447 .029)"/>
        <path fill="#0D224A" d="M2.6567756,4.41627111 C2.6567756,6.70031994 4.58280241,7.77039128 6.93140708,7.77039128 C8.85621257,7.77039128 10.342563,7.21075627 11.7458634,6.73229908 L11.7458634,8.11355209 C10.2607343,8.55511026 8.85621257,8.80356361 6.93140708,8.80356361 C3.16362476,8.80356361 0.0956606777,7.06193025 0.0956606777,4.41627111 C0.0956606777,1.62055599 3.16362476,0.0621877245 6.93140708,0.0621877245 C8.80980228,0.0621877245 10.7834607,0.454547216 11.9913494,0.765728882 L11.9913494,4.02883149 L9.77220503,4.02883149 L9.77220503,1.58857684 C8.95636108,1.31060429 8.36768326,1.09536005 7.09628572,1.09536005 C4.53394948,1.09536005 2.6567756,2.37575576 2.6567756,4.41627111" transform="translate(42.04 .083)"/>
        <path fill="#0D224A" d="M9.77058624,0 L9.77058624,1.03563226 L4.22089326,1.03563226 C3.03132438,1.03563226 2.68813254,1.5792777 2.68813254,2.49929306 L2.68813254,3.70466078 L9.20022827,3.70466078 L9.20022827,4.73783311 L2.68813254,4.73783311 L2.68813254,7.19899719 L9.49334586,7.19899719 L9.49334586,8.23216952 L0.437233734,8.23216952 L0.437233734,2.45009438 C0.437233734,0.904025788 1.07232184,0 3.14490745,0 L9.77058624,0 Z" transform="translate(57.697 .407)"/>
        <path fill="#0D224A" fill-rule="nonzero" d="M7.32793968,8.83254222 C3.56015736,8.83254222 0.476316079,7.05769976 0.476316079,4.40220088 C0.476316079,1.61755546 3.56015736,0.0911663383 7.32793968,0.0911663383 C11.0981646,0.0911663383 14.1649074,1.61755546 14.1649074,4.40220088 C14.1649074,7.05769976 11.0981646,8.83254222 7.32793968,8.83254222 M7.32793968,1.00995173 C4.76682476,1.00995173 3.037431,2.34077609 3.037431,4.40220088 C3.037431,6.6641103 4.96345781,7.79936989 7.32793968,7.79936989 C9.67776567,7.79936989 11.6025712,6.6641103 11.6025712,4.40220088 C11.6025712,2.34077609 9.8731774,1.00995173 7.32793968,1.00995173" transform="translate(69.908 .055)"/>
        <polygon fill="#0D224A" points="0 7.38 4.487 7.38 4.487 .328 6.739 .328 6.739 7.38 11.226 7.38 11.226 8.561 0 8.561" transform="translate(85.92 .078)"/>
      </g>
    </g>
  </g>
</svg>
