<svg xmlns="http://www.w3.org/2000/svg" width="173" height="26" viewBox="0 0 173 26">
  <g fill="none" fill-rule="evenodd">
    <polyline fill="#F78F1E" points="8.228 .467 .51 .467 9.378 12.908 .51 25.391 8.228 25.391 17.099 12.908 8.228 .467"/>
    <polyline fill="#000" points="18.034 6.043 21.739 6.043 24.588 10.684 27.536 6.043 31.033 6.043 26.379 12.976 31.44 20.572 27.636 20.572 24.465 15.544 21.23 20.572 17.647 20.572 22.717 12.957 18.034 6.043"/>
    <path fill="#000" d="M35.594619,8.44257143 L35.0257143,11.6814286 L35.0684286,11.7210476 C35.4652381,11.3279524 35.8849524,11.0431905 36.3312857,10.8748095 C36.777619,10.7020952 37.2864762,10.620381 37.8547619,10.620381 C38.5623333,10.620381 39.1863333,10.7491429 39.728619,11.0066667 C40.2702857,11.2648095 40.7302381,11.608381 41.1035238,12.0410952 C41.4768095,12.4738095 41.7615714,12.9826667 41.9590476,13.5750952 C42.1577619,14.1638095 42.2568095,14.7878095 42.2568095,15.4520476 C42.2568095,16.1893333 42.1113333,16.8665714 41.8271905,17.4918095 C41.5436667,18.1232381 41.1561429,18.6710952 40.677,19.1310476 C40.1910476,19.5934762 39.6326667,19.9438571 38.9981429,20.1945714 C38.3574286,20.4465238 37.6826667,20.565381 36.9620952,20.5517619 C36.2681429,20.5517619 35.607,20.4595238 34.9761905,20.2750476 C34.3478571,20.0930476 33.7894762,19.811381 33.3004286,19.435 C32.8107619,19.0518095 32.421381,18.5831905 32.1304286,18.0204762 C31.8394762,17.459 31.6871905,16.8040476 31.6741905,16.0574762 L34.5632857,16.0574762 C34.6295238,16.7087143 34.8734286,17.2274762 35.2968571,17.6100476 C35.7134762,17.9975714 36.2489524,18.1925714 36.9001905,18.1925714 C37.2802857,18.1925714 37.6238571,18.1158095 37.9247143,17.9610476 C38.2317619,17.8050476 38.4899048,17.6038571 38.701,17.3525238 C38.909,17.1018095 39.0711905,16.8108571 39.1869524,16.4802857 C39.3058095,16.146619 39.3621429,15.8055238 39.3621429,15.4557619 C39.3621429,15.092381 39.3058095,14.7457143 39.1962381,14.4219524 C39.091,14.1006667 38.9257143,13.8171429 38.7109048,13.572619 C38.492381,13.3274762 38.2379524,13.1361905 37.934,13.0043333 C37.6368571,12.8681429 37.2932857,12.805619 36.8995714,12.805619 C36.3839048,12.805619 35.9641905,12.8916667 35.6404286,13.0767619 C35.3098571,13.2618571 35.0059048,13.546619 34.7217619,13.9428095 L32.1205238,13.9428095 L33.5251429,6.06295238 L41.4842381,6.06295238 L41.4842381,8.44319048 L35.594619,8.44319048"/>
    <path fill="#000" fill-rule="nonzero" d="M51.5480952,6.04252381 C52.142381,6.04252381 52.7081905,6.11247619 53.2467619,6.2647619 C53.7785238,6.41271429 54.2477619,6.63742857 54.6482857,6.94819048 C55.0481905,7.2527619 55.3657619,7.6452381 55.6034762,8.125 C55.8380952,8.6072381 55.9606667,9.17614286 55.9606667,9.83047619 C55.9606667,10.7522381 55.7229524,11.5557619 55.2469048,12.2292857 C54.7702381,12.9077619 54.0694762,13.3398571 53.131619,13.5317619 L53.131619,13.5750952 C53.6076667,13.6438095 54.0007619,13.767 54.314619,13.949 C54.625381,14.1334762 54.8829048,14.365 55.081619,14.6497619 C55.276619,14.9407143 55.418381,15.2644762 55.5075238,15.6414762 C55.5966667,16.0116667 55.653,16.4146667 55.6827143,16.847381 C55.6957143,17.0919048 55.7093333,17.3896667 55.7223333,17.7431429 C55.7353333,18.0972381 55.7613333,18.4507143 55.8046667,18.811619 C55.8405714,19.1712857 55.9099048,19.5117619 55.9996667,19.825619 C56.0857143,20.149381 56.2045714,20.3939048 56.3531429,20.5728095 L54.8191429,20.5728095 C54.7368095,20.4341429 54.6736667,20.2688571 54.6241429,20.0738571 C54.5777143,19.8788571 54.5449048,19.6733333 54.5250952,19.4628571 C54.5052857,19.2542381 54.4854762,19.0462381 54.4724762,18.8413333 C54.4588571,18.6358095 54.4458571,18.4643333 54.4291429,18.3120476 C54.4025238,17.8000952 54.3629048,17.2875238 54.300381,16.7786667 C54.2372381,16.2729048 54.1084762,15.820381 53.910381,15.4198571 C53.715381,15.0168571 53.4312381,14.6999048 53.0579524,14.4547619 C52.6871429,14.2065238 52.1751905,14.1006667 51.5245714,14.1272857 L46.2886667,14.1272857 L46.2886667,20.5721905 L44.8939524,20.5721905 L44.8939524,6.04314286 L51.5480952,6.04314286 L51.5480952,6.04252381 Z M51.4422381,12.9374762 C51.8619524,12.9374762 52.2649524,12.8743333 52.6419524,12.7455714 C53.0220476,12.6168095 53.3557143,12.428 53.6398571,12.1865714 C53.924,11.9451429 54.1493333,11.6442857 54.3208095,11.3038095 C54.4860952,10.9608571 54.5690476,10.5640476 54.5690476,10.114619 C54.5690476,9.21947619 54.314,8.515 53.7989524,7.99933333 C53.286381,7.48366667 52.5032857,7.22861905 51.4422381,7.22861905 L46.2892857,7.22861905 L46.2892857,12.9368571 L51.4422381,12.9368571 L51.4422381,12.9374762 Z"/>
    <polyline fill="#000" points="68.083 6.043 68.083 7.229 59.441 7.229 59.441 12.461 67.535 12.461 67.535 13.651 59.441 13.651 59.441 19.382 68.186 19.382 68.186 20.572 58.052 20.572 58.052 6.043 68.083 6.043"/>
    <polyline fill="#000" points="80.458 6.043 80.458 7.229 75.391 7.229 75.391 20.572 74.006 20.572 74.006 7.229 68.959 7.229 68.959 6.043 80.458 6.043"/>
    <path fill="#000" fill-rule="nonzero" d="M85.5802381,6.04252381 L91.2717619,20.5715714 L89.791,20.5715714 L88.0192857,16.0500476 L81.4084762,16.0500476 L79.6602857,20.5715714 L78.1962381,20.5715714 L84.0332381,6.04252381 L85.5802381,6.04252381 Z M87.5537619,14.8614762 L84.7451429,7.41495238 L81.8393333,14.8614762 L87.5537619,14.8614762 Z"/>
    <rect width="1.389" height="14.535" x="92.692" y="6.036" fill="#000"/>
    <polyline fill="#000" points="98.497 6.043 98.497 19.382 106.634 19.382 106.634 20.572 97.108 20.572 97.108 6.043 98.497 6.043"/>
    <path fill="#000" d="M114.836429,21.1219048 C113.698619,21.1219048 112.680905,20.9194762 111.788857,20.4979048 C110.90981,20.0837619 110.165714,19.525381 109.574524,18.8097619 C108.98519,18.1040476 108.541952,17.2695714 108.243571,16.3249048 C107.943333,15.3808571 107.796,14.3718095 107.796,13.3095238 C107.796,12.2249524 107.95819,11.2140476 108.276381,10.2600952 C108.601381,9.30614286 109.065667,8.47166667 109.668,7.76842857 C110.27281,7.05466667 111.014429,6.49319048 111.882952,6.08771429 C112.75581,5.681 113.748143,5.47671429 114.849429,5.47671429 C115.685143,5.47671429 116.46019,5.59680952 117.173333,5.83390476 C117.884,6.07347619 118.512333,6.41766667 119.057095,6.85904762 C119.597524,7.30661905 120.045095,7.83961905 120.388048,8.45804762 C120.739048,9.08019048 120.972429,9.78219048 121.10181,10.5448571 L121.148238,10.8172381 L120.871524,10.8172381 L120.265476,10.8172381 L120.23081,10.6234762 C120.116286,9.97533333 119.90519,9.39404762 119.602476,8.86352381 C119.295429,8.33671429 118.91781,7.891 118.456,7.51957143 C117.996048,7.14504762 117.464905,6.85780952 116.857619,6.65414286 C116.256524,6.45109524 115.584857,6.35204762 114.84819,6.35204762 C113.859571,6.35204762 112.990429,6.53404762 112.233333,6.89680952 C111.466952,7.26328571 110.824381,7.75914286 110.29881,8.38252381 C109.769524,9.0102381 109.364667,9.74319048 109.088571,10.5906667 C108.811857,11.4375238 108.674429,12.3469048 108.674429,13.3101429 C108.674429,14.2795714 108.808762,15.1914286 109.074333,16.042619 C109.333714,16.887 109.724952,17.6261429 110.247429,18.2482857 C110.762476,18.8673333 111.414333,19.3625714 112.188762,19.7321429 C112.959476,20.0918095 113.86019,20.2787619 114.902048,20.2787619 C115.679571,20.2787619 116.398286,20.1450476 117.068714,19.877619 C117.749048,19.6095714 118.342095,19.2369048 118.836714,18.7658095 C119.335667,18.2959524 119.72381,17.732619 120.012905,17.0751905 C120.296429,16.4177619 120.43881,15.7095714 120.43881,14.9400952 L120.43881,14.4200952 L114.807952,14.4200952 L114.807952,14.1873333 L114.807952,13.7830952 L114.807952,13.5497143 L121.320952,13.5497143 L121.320952,20.7987619 L121.087571,20.7987619 L120.43819,20.7987619 L120.445,18.0266667 C120.019095,18.8450476 119.418,19.5198095 118.652238,20.0435238 C117.589952,20.7653333 116.315952,21.1219048 114.846333,21.1219048 C114.845095,21.1219048 114.841381,21.1219048 114.836429,21.1219048 Z"/>
    <path fill="#000" fill-rule="nonzero" d="M122.736714 20.8043333L122.503952 20.8043333 122.503952 5.81471429 128.695048 5.81471429C130.248238 5.81657143 131.419476 6.11309524 132.195143 6.77609524 132.967714 7.43352381 133.34781 8.45 133.381238 9.76671429 133.383714 9.81314286 133.383714 9.85895238 133.383714 9.90538095 133.383714 10.8661429 133.103286 11.6907143 132.545524 12.35 132.122714 12.8514286 131.56619 13.2327619 130.89019 13.494619 131.160095 13.5732381 131.402143 13.6698095 131.616952 13.7861905 132.028619 14.0127619 132.354857 14.3160952 132.578333 14.6961905 132.796857 15.0639048 132.94481 15.495381 133.017857 15.9856667 133.082238 16.4617143 133.115667 16.9866667 133.115667 17.5846667 133.115667 17.7728571 133.128667 18.030381 133.13919 18.3343333 133.15219 18.6364286 133.174476 18.9348095 133.198619 19.227619 133.228952 19.5216667 133.259905 19.785381 133.298286 20.0268095 133.333571 20.2552381 133.389905 20.4007143 133.420238 20.436L133.690143 20.8061905 133.23081 20.8061905 132.637143 20.8061905 132.574619 20.6749524C132.485476 20.4929524 132.427905 20.2762857 132.380857 20.0051429 132.341238 19.7513333 132.30781 19.4727619 132.289857 19.1818095 132.271905 18.8945714 132.252095 18.6073333 132.247143 18.3114286 132.240333 18.0149048 132.234762 17.7555238 132.234762 17.5190476 132.234762 16.9340476 132.193905 16.4140476 132.106 15.9615238 132.023667 15.5288095 131.862095 15.1771905 131.623762 14.8911905 131.383571 14.612 131.031952 14.3854286 130.568905 14.2269524 130.098429 14.0703333 129.450905 13.9842857 128.627571 13.9842857L123.387952 13.9842857 123.387952 20.8055714 123.153333 20.8055714 122.736714 20.8055714 122.736714 20.8043333zM128.590429 13.1194762C129.114762 13.1194762 129.609381 13.052619 130.089762 12.9182857 130.554667 12.7944762 130.967571 12.5932857 131.318571 12.3122381 131.673905 12.0361429 131.953714 11.6938095 132.173476 11.2617143 132.383333 10.8475714 132.492286 10.3424286 132.492286 9.73328571 132.47681 8.74590476 132.187714 8.02285714 131.630571 7.4892381 131.087667 6.97542857 130.150429 6.69190476 128.798429 6.69314286L123.387952 6.69190476 123.387952 13.1200952 128.590429 13.1200952 128.590429 13.1194762zM138.02719 20.4972857C137.164857 20.0812857 136.436238 19.5160952 135.853714 18.798 135.274286 18.0799048 134.831048 17.2479048 134.53019 16.2970476 134.233048 15.3548571 134.077667 14.3544762 134.077667 13.3014762 134.077667 12.246619 134.233048 11.2437619 134.53019 10.3028095 134.830429 9.35071429 135.274286 8.51995238 135.853714 7.80309524 136.435619 7.08314286 137.164857 6.513 138.025333 6.097 138.897571 5.66985714 139.893619 5.45814286 141.00481 5.45814286 142.120952 5.45814286 143.116381 5.66985714 143.983667 6.097 144.846 6.513 145.577095 7.0837619 146.160238 7.80309524 146.740905 8.51995238 147.184143 9.35071429 147.485 10.3009524 147.782762 11.2437619 147.932571 12.246619 147.932571 13.3014762 147.932571 14.3532381 147.783381 15.352381 147.485 16.2970476 147.184762 17.2479048 146.740905 18.0799048 146.160238 18.798 145.577714 19.5160952 144.846 20.0812857 143.983667 20.4972857 143.115143 20.9182381 142.120952 21.1231429 141.00481 21.1231429 139.894857 21.1231429 138.899429 20.9182381 138.02719 20.4972857zM136.605238 18.3318571C137.119048 18.9428571 137.744905 19.422 138.487143 19.7699048 139.222571 20.111619 140.058286 20.2837143 141.00419 20.2837143 141.954429 20.2837143 142.790762 20.1122381 143.528667 19.7717619 144.270286 19.422 144.894286 18.9428571 145.408714 18.3337143 145.916333 17.7227143 146.319333 16.9897619 146.601619 16.1367143 146.885143 15.2725238 147.034333 14.339619 147.047333 13.3194286 147.034333 12.2998571 146.885143 11.362619 146.601619 10.504 146.319333 9.65033333 145.916952 8.91366667 145.408714 8.30080952 144.894286 7.69352381 144.270286 7.21747619 143.528667 6.86771429 142.790762 6.52290476 141.954429 6.35080952 141.00419 6.35080952 140.058286 6.35080952 139.222571 6.52290476 138.488381 6.86771429 137.743048 7.21747619 137.119048 7.69042857 136.605238 8.30080952 136.093286 8.91366667 135.694 9.65033333 135.408 10.504 135.12819 11.3607619 134.980238 12.2998571 134.967238 13.3138571 134.980238 14.339 135.12819 15.2719048 135.408 16.1354762L135.408 16.1348571C135.694 16.9897619 136.093286 17.7227143 136.605238 18.3318571z"/>
    <path fill="#000" d="M160.077667,5.80790476 L160.311667,5.80790476 L160.311667,15.1524286 C160.311667,17.1370952 159.848,18.6481905 158.881048,19.643 C157.920286,20.6371905 156.525571,21.1231429 154.753238,21.1231429 C154.749524,21.1231429 154.74581,21.1231429 154.743952,21.1231429 C152.96481,21.125 151.570714,20.6390476 150.608714,19.643 C149.638048,18.6481905 149.178095,17.1370952 149.178095,15.1524286 L149.178095,5.80790476 L149.412714,5.80790476 L150.060238,5.80790476 L150.060238,15.1524286 C150.062095,16.8696667 150.452095,18.1325238 151.199286,18.9830952 C151.942143,19.8231429 153.102238,20.2626667 154.743952,20.2651429 C156.384429,20.2626667 157.542667,19.8231429 158.286143,18.9830952 C159.031476,18.1312857 159.428286,16.8690476 159.428286,15.1524286 L159.428286,5.80790476 L159.661667,5.80790476 L160.077667,5.80790476 Z"/>
    <path fill="#000" fill-rule="nonzero" d="M161.853714,20.8043333 L161.619095,20.8043333 L161.619095,5.82090476 L167.74519,5.82090476 C169.176429,5.82090476 170.322286,6.16447619 171.153667,6.87761905 C171.982571,7.59509524 172.39919,8.66109524 172.397333,10.022381 C172.397333,10.6890952 172.272905,11.2889524 172.029619,11.8188571 C171.784476,12.3438095 171.444,12.7876667 171.006333,13.1448571 C170.574857,13.4964762 170.05919,13.7620476 169.472333,13.9372381 C168.884857,14.117381 168.236095,14.2015714 167.540905,14.2015714 L162.502476,14.2015714 L162.502476,20.8049524 L162.269095,20.8049524 L161.853714,20.8049524 L161.853714,20.8043333 Z M167.740238,13.3175714 C168.286857,13.3175714 168.792,13.2457619 169.255048,13.0965714 C169.718714,12.9498571 170.11119,12.7362857 170.448571,12.4509048 C170.779762,12.1704762 171.037905,11.8250476 171.22981,11.4220476 C171.417381,11.0221429 171.513333,10.556 171.513333,10.0149524 C171.510857,8.9062381 171.201952,8.09838095 170.597762,7.54185714 C170.002857,6.98966667 169.062524,6.69314286 167.740857,6.69314286 L162.501857,6.69190476 L162.501857,13.3181905 L167.740238,13.3181905 L167.740238,13.3175714 Z"/>
  </g>
</svg>
