<svg xmlns="http://www.w3.org/2000/svg" width="88" height="50" viewBox="0 0 88 50">
  <g fill="none" fill-rule="evenodd">
    <path fill="#EFBC35" d="M22.924,9.71 L19.656,17.158 L15.324,27 L9.624,27 L8.028,0.818 L13.31,0.818 L13.576,11.154 L13.766,19.248 L13.994,19.248 L17.604,11.078 L22.164,0.818 L27.256,0.818 L27.902,11.61 L28.32,19.248 L28.548,19.248 L31.702,11.534 L36.148,0.818 L41.62,0.818 L29.878,27 L24.216,27 L23.684,17.12 L23.228,9.71 L22.924,9.71 Z M58.378,7.278 C57.71933,6.59399658 56.9023382,6.09366825 55.927,5.777 C54.9516618,5.46033175 54.0206711,5.302 53.134,5.302 C51.6646593,5.302 50.4550047,5.70099601 49.505,6.499 C48.5549952,7.29700399 47.915335,8.56999126 47.586,10.318 L46.218,17.652 C46.1419996,18.0320019 46.104,18.386665 46.104,18.716 C46.104,19.37467 46.2306654,19.938331 46.484,20.407 C46.7373346,20.875669 47.0666646,21.2556652 47.472,21.547 C47.8773354,21.8383348 48.3396641,22.053666 48.859,22.193 C49.3783359,22.332334 49.9166639,22.402 50.474,22.402 C50.9046688,22.402 51.3733308,22.3640004 51.88,22.288 C52.3866692,22.2119996 52.8996641,22.0916675 53.419,21.927 C53.9383359,21.7623325 54.4449975,21.5596679 54.939,21.319 C55.4330025,21.0783321 55.8826646,20.8060015 56.288,20.502 L58.454,24.758 C57.79533,25.2393357 57.0986703,25.6383318 56.364,25.955 C55.6293297,26.2716683 54.8820038,26.5249991 54.122,26.715 C53.3619962,26.905001 52.6020038,27.0379996 51.842,27.114 C51.0819962,27.1900004 50.3473369,27.228 49.638,27.228 C48.5993281,27.228 47.5543386,27.0696683 46.503,26.753 C45.4516614,26.4363318 44.5080042,25.9550032 43.672,25.309 C42.8359958,24.6629968 42.1583359,23.8586715 41.639,22.896 C41.1196641,21.9333285 40.86,20.7933399 40.86,19.476 C40.86,19.146665 40.8726665,18.817335 40.898,18.488 C40.9233335,18.158665 40.9739996,17.8166684 41.05,17.462 L42.684,9.026 C43.2413361,6.21398594 44.4129911,4.09867376 46.199,2.68 C47.9850089,1.26132624 50.3473186,0.552 53.286,0.552 C54.8060076,0.552 56.3133259,0.79266426 57.808,1.274 C59.3026741,1.75533574 60.4933289,2.4393289 61.38,3.326 L58.378,7.278 Z M78.328,17.576 C78.8853361,14.7639859 79.4299973,11.9710139 79.962,9.197 C80.4940027,6.42298613 81.0259973,3.63001406 81.558,0.818 L86.688,0.818 L81.672,27 L76.96,27 C76.6559985,26.3666635 76.2950021,25.5940046 75.877,24.682 C75.4589979,23.7699954 75.0093357,22.8010051 74.528,21.775 C74.0466643,20.7489949 73.5463359,19.6913388 73.027,18.602 C72.5076641,17.5126612 72.013669,16.4550051 71.545,15.429 C71.076331,14.4029949 70.6393354,13.4530044 70.234,12.579 C69.8286646,11.7049956 69.4866681,10.964003 69.208,10.356 L65.788,27 L60.62,27 L65.636,0.818 L70.386,0.818 C70.6646681,1.40066958 71.0193312,2.12899563 71.45,3.003 C71.8806688,3.87700437 72.3366643,4.83332814 72.818,5.872 C73.2993357,6.91067186 73.7933308,7.99366103 74.3,9.121 C74.8066692,10.248339 75.3006643,11.3376614 75.782,12.389 C76.2633357,13.4403386 76.7129979,14.4156622 77.131,15.315 C77.5490021,16.2143378 77.8973319,16.967997 78.176,17.576 L78.328,17.576 Z"/>
    <path fill="#302F2D" d="M5.564,40.188 L4.888,42.996 L3.848,47 L2.496,47 L0.13,38.043 L1.43,38.043 L2.444,42.164 L3.146,45.128 L3.211,45.128 L3.926,42.151 L4.966,38.043 L6.227,38.043 L7.293,42.281 L7.982,45.128 L8.047,45.128 L8.723,42.242 L9.763,38.043 L11.063,38.043 L8.697,47 L7.345,47 L6.292,42.944 L5.642,40.188 L5.564,40.188 Z M17.16,44.725 C17.16,45.0976685 17.0885007,45.4291652 16.9455,45.7195 C16.8024993,46.0098348 16.6075012,46.2546657 16.3605,46.454 C16.1134988,46.6533343 15.8296683,46.8049995 15.509,46.909 C15.1883317,47.0130005 14.8460018,47.065 14.482,47.065 C14.1093315,47.065 13.7626683,47.0130005 13.442,46.909 C13.1213317,46.8049995 12.8418345,46.6533343 12.6035,46.454 C12.3651655,46.2546657 12.1766674,46.0098348 12.038,45.7195 C11.8993326,45.4291652 11.83,45.0976685 11.83,44.725 L11.83,42.853 C11.83,42.4803315 11.9014993,42.1488348 12.0445,41.8585 C12.1875007,41.5681652 12.3781655,41.3211677 12.6165,41.1175 C12.8548345,40.9138323 13.1364984,40.7578339 13.4615,40.6495 C13.7865016,40.5411661 14.1309982,40.487 14.495,40.487 C14.885002,40.487 15.2424984,40.5411661 15.5675,40.6495 C15.8925016,40.7578339 16.1741655,40.9138323 16.4125,41.1175 C16.6508345,41.3211677 16.8349993,41.5681652 16.965,41.8585 C17.0950006,42.1488348 17.16,42.4803315 17.16,42.853 L17.16,44.725 Z M16.055,43.048 C16.055,42.7706653 16.0073338,42.534501 15.912,42.3395 C15.8166662,42.144499 15.6931674,41.9863339 15.5415,41.865 C15.3898326,41.7436661 15.2230009,41.6570003 15.041,41.605 C14.8589991,41.5529997 14.6813342,41.527 14.508,41.527 C14.3259991,41.527 14.1440009,41.5529997 13.962,41.605 C13.7799991,41.6570003 13.6131674,41.7436661 13.4615,41.865 C13.3098326,41.9863339 13.1863338,42.144499 13.091,42.3395 C12.9956662,42.534501 12.948,42.7706653 12.948,43.048 L12.948,44.504 C12.948,44.7813347 12.9891663,45.017499 13.0715,45.2125 C13.1538337,45.407501 13.2643326,45.5656661 13.403,45.687 C13.5416674,45.8083339 13.7063324,45.8949997 13.897,45.947 C14.0876676,45.9990003 14.2913322,46.025 14.508,46.025 C14.6813342,46.025 14.8589991,45.9990003 15.041,45.947 C15.2230009,45.8949997 15.3898326,45.8083339 15.5415,45.687 C15.6931674,45.5656661 15.8166662,45.407501 15.912,45.2125 C16.0073338,45.017499 16.055,44.7813347 16.055,44.504 L16.055,43.048 Z M22.035,41.657 C21.4543304,41.7090003 20.9755019,41.8108326 20.5985,41.9625 C20.2214981,42.1141674 19.9333343,42.2549993 19.734,42.385 L19.734,47 L18.616,47 L18.616,40.552 L19.604,40.552 L19.721,41.501 L19.734,41.501 C19.8466672,41.3883328 19.9896658,41.2713339 20.163,41.15 C20.3363342,41.0286661 20.5226657,40.9181672 20.722,40.8185 C20.9213343,40.7188328 21.1336655,40.6365003 21.359,40.5715 C21.5843345,40.5064997 21.8096655,40.474 22.035,40.474 L22.035,41.657 Z M24.271,45.284 C24.271,45.6220017 24.3468326,45.8321663 24.4985,45.9145 C24.6501674,45.9968337 24.9036649,46.0293334 25.259,46.012 L25.285,47.026 C25.1636661,47.0433334 25.0488339,47.0563333 24.9405,47.065 C24.8321661,47.0736667 24.7303338,47.078 24.635,47.078 C24.3316651,47.078 24.0868343,47.041167 23.9005,46.9675 C23.7141657,46.893833 23.5646672,46.7855007 23.452,46.6425 C23.3393328,46.4994993 23.2635002,46.3261677 23.2245,46.1225 C23.1854998,45.9188323 23.166,45.6870013 23.166,45.427 L23.166,37.692 L24.271,37.692 L24.271,45.284 Z M30.628,47 L30.498,46.324 C29.9866641,46.6273348 29.5771682,46.8266662 29.2695,46.922 C28.9618318,47.0173338 28.6910012,47.065 28.457,47.065 C28.1449984,47.065 27.8568347,47.0195005 27.5925,46.9285 C27.3281653,46.8374995 27.1006676,46.6988343 26.91,46.5125 C26.7193324,46.3261657 26.5698339,46.0878348 26.4615,45.7975 C26.3531661,45.5071652 26.299,45.1626687 26.299,44.764 L26.299,42.788 C26.299,42.4239982 26.3574994,42.0990014 26.4745,41.813 C26.5915006,41.5269986 26.7518323,41.286501 26.9555,41.0915 C27.1591677,40.896499 27.3996653,40.7470005 27.677,40.643 C27.9543347,40.5389995 28.2489984,40.487 28.561,40.487 C28.7950012,40.487 29.0701651,40.5129997 29.3865,40.565 C29.7028349,40.6170003 30.0733312,40.7123326 30.498,40.851 L30.498,37.692 L31.603,37.692 L31.603,47 L30.628,47 Z M30.498,41.943 C30.1513316,41.8216661 29.8263348,41.724167 29.523,41.6505 C29.2196651,41.576833 28.933668,41.54 28.665,41.54 C28.3183316,41.5313333 28.0236679,41.6331656 27.781,41.8455 C27.5383321,42.0578344 27.417,42.4153308 27.417,42.918 L27.417,44.699 C27.417,45.1930025 27.520999,45.5331657 27.729,45.7195 C27.937001,45.9058343 28.2143316,45.999 28.561,45.999 C28.6823339,45.999 28.8253325,45.9795002 28.99,45.9405 C29.1546675,45.9014998 29.3236658,45.8473337 29.497,45.778 C29.6703342,45.7086663 29.8436658,45.6285005 30.017,45.5375 C30.1903342,45.4464995 30.3506659,45.3490005 30.498,45.245 L30.498,41.943 Z M39.26,37.952 C39.7453358,37.952 40.2003312,38.0169993 40.625,38.147 C41.0496688,38.2770006 41.4309983,38.4806653 41.769,38.758 L41.171,39.694 C40.9369988,39.4946657 40.6445018,39.3386672 40.2935,39.226 C39.9424982,39.1133328 39.5980017,39.057 39.26,39.057 C39.0086654,39.057 38.7616679,39.0959996 38.519,39.174 C38.2763321,39.2520004 38.0596676,39.3733325 37.869,39.538 C37.6783324,39.7026675 37.5245006,39.9149987 37.4075,40.175 C37.2904994,40.4350013 37.232,40.7513315 37.232,41.124 L37.232,43.919 C37.232,44.2830018 37.2926661,44.5971653 37.414,44.8615 C37.5353339,45.1258347 37.6913324,45.3403325 37.882,45.505 C38.0726676,45.6696675 38.2871655,45.7909996 38.5255,45.869 C38.7638345,45.9470004 38.9999988,45.986 39.234,45.986 C39.5720017,45.986 39.9164982,45.9383338 40.2675,45.843 C40.6185018,45.7476662 40.9326653,45.5873345 41.21,45.362 L41.782,46.285 C41.5046653,46.5103345 41.1450022,46.7009992 40.703,46.857 C40.2609978,47.0130008 39.7800026,47.091 39.26,47.091 C38.8266645,47.091 38.4128353,47.023834 38.0185,46.8895 C37.6241647,46.755166 37.2796681,46.5623346 36.985,46.311 C36.6903319,46.0596654 36.4563342,45.7520018 36.283,45.388 C36.1096658,45.0239982 36.023,44.6123356 36.023,44.153 L36.023,40.877 C36.023,40.4263311 36.1118324,40.0211685 36.2895,39.6615 C36.4671676,39.3018315 36.7033319,38.9941679 36.998,38.7385 C37.2926681,38.4828321 37.634998,38.287834 38.025,38.1535 C38.4150019,38.019166 38.8266645,37.952 39.26,37.952 Z M47.138,47 L47.008,46.311 C46.739332,46.4756675 46.5031677,46.6078328 46.2995,46.7075 C46.0958323,46.8071672 45.9138341,46.8829997 45.7535,46.935 C45.5931659,46.9870003 45.4501673,47.0216666 45.3245,47.039 C45.1988327,47.0563334 45.0796672,47.065 44.967,47.065 C44.2823299,47.065 43.7493352,46.8656687 43.368,46.467 C42.9866648,46.0683313 42.796,45.5006703 42.796,44.764 L42.796,40.552 L43.914,40.552 L43.914,44.647 C43.914,45.1496692 44.0244989,45.5028323 44.2455,45.7065 C44.4665011,45.9101677 44.741665,46.0076667 45.071,45.999 C45.3310013,45.999 45.632165,45.9296674 45.9745,45.791 C46.316835,45.6523326 46.6613316,45.4573346 47.008,45.206 L47.008,40.552 L48.126,40.552 L48.126,47 L47.138,47 Z M50.362,40.565 L50.492,41.241 C51.0033359,40.9376651 51.4128318,40.7383338 51.7205,40.643 C52.0281682,40.5476662 52.2989988,40.5 52.533,40.5 C53.1656698,40.5 53.683498,40.6863315 54.0865,41.059 C54.489502,41.4316685 54.691,42.0123294 54.691,42.801 L54.691,44.777 C54.691,45.5136703 54.489502,46.0813313 54.0865,46.48 C53.683498,46.8786687 53.1310035,47.078 52.429,47.078 C52.1949988,47.078 51.9220016,47.0541669 51.61,47.0065 C51.2979984,46.9588331 50.9253355,46.8483342 50.492,46.675 L50.492,49.574 L49.387,49.574 L49.387,40.565 L50.362,40.565 Z M50.492,45.622 C50.8906687,45.7866675 51.2286653,45.8949997 51.506,45.947 C51.7833347,45.9990003 52.056332,46.025 52.325,46.025 C52.4983342,46.025 52.6608326,46.0055002 52.8125,45.9665 C52.9641674,45.9274998 53.0963328,45.8581672 53.209,45.7585 C53.3216672,45.6588328 53.4104997,45.5245008 53.4755,45.3555 C53.5405003,45.1864992 53.573,44.9763346 53.573,44.725 L53.573,42.879 C53.573,42.3849975 53.469001,42.0448343 53.261,41.8585 C53.052999,41.6721657 52.7756684,41.579 52.429,41.579 C52.3076661,41.579 52.1646675,41.6006664 52,41.644 C51.8353325,41.6873335 51.6641676,41.7436663 51.4865,41.813 C51.3088324,41.8823337 51.1333342,41.9624995 50.96,42.0535 C50.7866658,42.1445005 50.6306674,42.2376662 50.492,42.333 L50.492,45.622 Z M64.818,44.751 L64.818,38.043 L66.014,38.043 L66.014,47 L64.857,47 L61.724,42.32 L60.45,40.357 L60.359,40.357 L60.359,47 L59.163,47 L59.163,38.043 L60.294,38.043 L63.531,42.892 L64.727,44.751 L64.818,44.751 Z M68.51,44.192 L68.51,44.621 C68.51,44.8810013 68.5533329,45.0998324 68.64,45.2775 C68.7266671,45.4551676 68.8458326,45.6024994 68.9975,45.7195 C69.1491674,45.8365006 69.322499,45.9209997 69.5175,45.973 C69.712501,46.0250003 69.913999,46.051 70.122,46.051 C70.3386677,46.051 70.5899986,46.0076671 70.876,45.921 C71.1620014,45.8343329 71.439332,45.6653346 71.708,45.414 L72.41,46.181 C72.080665,46.5190017 71.714502,46.7508327 71.3115,46.8765 C70.908498,47.0021673 70.5033354,47.065 70.096,47.065 C69.7319982,47.065 69.385335,47.0151672 69.056,46.9155 C68.726665,46.8158328 68.4385012,46.668501 68.1915,46.4735 C67.9444988,46.278499 67.7495007,46.0336681 67.6065,45.739 C67.4634993,45.4443319 67.392,45.1020019 67.392,44.712 L67.392,43.009 C67.392,42.6276648 67.4569993,42.2810016 67.587,41.969 C67.7170006,41.6569984 67.8968322,41.3926677 68.1265,41.176 C68.3561678,40.9593322 68.6291651,40.7925006 68.9455,40.6755 C69.2618349,40.5584994 69.6106648,40.5 69.992,40.5 C70.3733352,40.5 70.7243317,40.5563328 71.045,40.669 C71.3656683,40.7816672 71.6408322,40.941999 71.8705,41.15 C72.1001678,41.358001 72.2778327,41.6114985 72.4035,41.9105 C72.5291673,42.2095015 72.592,42.5453315 72.592,42.918 L72.592,44.192 L68.51,44.192 Z M71.461,43.035 C71.461,42.766332 71.4220004,42.5366676 71.344,42.346 C71.2659996,42.1553324 71.159834,41.9971673 71.0255,41.8715 C70.891166,41.7458327 70.7351676,41.6548336 70.5575,41.5985 C70.3798324,41.5421664 70.1913343,41.514 69.992,41.514 C69.7926657,41.514 69.6063342,41.544333 69.433,41.605 C69.2596658,41.665667 69.1036674,41.7566661 68.965,41.878 C68.8263326,41.9993339 68.7180004,42.1531657 68.64,42.3395 C68.5619996,42.5258343 68.523,42.7446654 68.523,42.996 L68.523,43.282 L71.461,43.282 L71.461,43.035 Z M77.636,42.58 L76.986,44.634 L76.219,47 L75.153,47 L73.32,40.552 L74.477,40.552 L75.075,42.892 L75.686,45.31 L75.738,45.31 L76.505,42.957 L77.116,41.176 L78.247,41.176 L78.923,43.204 L79.599,45.31 L79.664,45.31 L80.223,43.035 L80.847,40.552 L81.952,40.552 L80.21,47 L79.144,47 L78.351,44.595 L77.688,42.58 L77.636,42.58 Z M87.711,45.154 C87.711,45.4573348 87.6460006,45.7259988 87.516,45.96 C87.3859993,46.1940012 87.2083345,46.3954992 86.983,46.5645 C86.7576655,46.7335008 86.4890016,46.8613329 86.177,46.948 C85.8649984,47.0346671 85.5226685,47.078 85.15,47.078 C84.6993311,47.078 84.2616688,47.0195006 83.837,46.9025 C83.4123312,46.7854994 82.9833355,46.562335 82.55,46.233 L83.161,45.414 C83.4816683,45.682668 83.8109983,45.8668328 84.149,45.9665 C84.4870017,46.0661672 84.8553313,46.116 85.254,46.116 C85.4100008,46.116 85.5681659,46.0965002 85.7285,46.0575 C85.8888341,46.0184998 86.0318327,45.9600004 86.1575,45.882 C86.2831673,45.8039996 86.3849996,45.7021673 86.463,45.5765 C86.5410004,45.4508327 86.58,45.3013342 86.58,45.128 C86.58,44.8506653 86.4803343,44.6513339 86.281,44.53 C86.0816657,44.4086661 85.8303348,44.3220003 85.527,44.27 C85.197665,44.2179997 84.8705016,44.1595003 84.5455,44.0945 C84.2204984,44.0294997 83.9280013,43.9320006 83.668,43.802 C83.4079987,43.6719993 83.1956675,43.4986677 83.031,43.282 C82.8663325,43.0653322 82.784,42.7793351 82.784,42.424 C82.784,42.1293319 82.8446661,41.8606679 82.966,41.618 C83.0873339,41.3753321 83.2563322,41.1716675 83.473,41.007 C83.6896677,40.8423325 83.9388319,40.7145005 84.2205,40.6235 C84.5021681,40.5324995 84.807665,40.487 85.137,40.487 C85.6223358,40.487 86.0513315,40.5368328 86.424,40.6365 C86.7966685,40.7361672 87.1563316,40.9116654 87.503,41.163 L86.944,41.995 C86.6406651,41.8043324 86.3460014,41.6700004 86.06,41.592 C85.7739986,41.5139996 85.466335,41.475 85.137,41.475 C84.7556648,41.475 84.4480012,41.5638324 84.214,41.7415 C83.9799988,41.9191676 83.863,42.142332 83.863,42.411 C83.863,42.6363345 83.9583324,42.8053328 84.149,42.918 C84.3396676,43.0306672 84.5779986,43.1194997 84.864,43.1845 C85.1500014,43.2495003 85.457665,43.3101664 85.787,43.3665 C86.116335,43.4228336 86.4239986,43.5159993 86.71,43.646 C86.9960014,43.7760006 87.2343324,43.9579988 87.425,44.192 C87.6156676,44.4260012 87.711,44.7466646 87.711,45.154 Z"/>
  </g>
</svg>
