<svg xmlns="http://www.w3.org/2000/svg" xmlns:xlink="http://www.w3.org/1999/xlink" width="133" height="40" viewBox="0 0 133 40">
  <defs>
    <path id="group-15-b" d="M9.0625,16.2500391 L9.0625,8.75003906 C10.2305469,8.75003906 11.3105469,9.12699219 12.1875,9.76589844 L12.1875,16.2500391 L9.0625,16.2500391 Z M12.1875,3.23967188 C17.3146875,3.995375 21.25,8.412875 21.25,13.7500625 C21.25,16.6840469 20.0607031,19.3402969 18.1379688,21.2630313 L15.9282812,19.0533437 C17.2855469,17.6960781 18.125,15.8210781 18.125,13.7500625 C18.125,9.607875 14.7671875,6.2500625 10.625,6.2500625 C6.4828125,6.2500625 3.125,9.607875 3.125,13.7500625 C3.125,15.8210781 3.96445313,17.6960781 5.32171875,19.0533437 L3.11195312,21.2630313 C1.18921875,19.3402969 0,16.6840469 0,13.7500625 C0,8.412875 3.93539063,3.995375 9.0625,3.23967188 L9.0625,0.6250625 L12.1875,6.25e-05 L12.1875,3.23967188 Z"/>
    <filter id="group-15-a" width="137.6%" height="147%" x="-18.8%" y="-18.8%" filterUnits="objectBoundingBox">
      <feOffset dy="2" in="SourceAlpha" result="shadowOffsetOuter1"/>
      <feGaussianBlur in="shadowOffsetOuter1" result="shadowBlurOuter1" stdDeviation="1"/>
      <feColorMatrix in="shadowBlurOuter1" result="shadowMatrixOuter1" values="0 0 0 0 0   0 0 0 0 0   0 0 0 0 0  0 0 0 0.12 0"/>
      <feOffset in="SourceAlpha" result="shadowOffsetOuter2"/>
      <feGaussianBlur in="shadowOffsetOuter2" result="shadowBlurOuter2" stdDeviation="1"/>
      <feColorMatrix in="shadowBlurOuter2" result="shadowMatrixOuter2" values="0 0 0 0 0   0 0 0 0 0   0 0 0 0 0  0 0 0 0.06 0"/>
      <feMerge>
        <feMergeNode in="shadowMatrixOuter1"/>
        <feMergeNode in="shadowMatrixOuter2"/>
      </feMerge>
    </filter>
  </defs>
  <g fill="none" fill-rule="evenodd">
    <rect width="40" height="40" fill="#FFF"/>
    <circle cx="20" cy="20" r="17.5" fill="#2962FF"/>
    <g transform="translate(9 6.25)">
      <use fill="#000" filter="url(#group-15-a)" xlink:href="#group-15-b"/>
      <use fill="#FFF" xlink:href="#group-15-b"/>
    </g>
    <path fill="#302F2D" d="M52.93,26.216 C51.0339905,26.216 49.4590063,25.6370058 48.205,24.479 C46.9509937,23.3209942 46.324,21.8300091 46.324,20.006 C46.324,18.1699908 46.9479938,16.6760058 48.196,15.524 C49.4440062,14.3719942 51.0219905,13.796 52.93,13.796 C54.3700072,13.796 55.5309956,14.1319966 56.413,14.804 C57.2950044,15.4760034 57.9519978,16.3039951 58.384,17.288 L55.252,18.746 C55.0959992,18.2659976 54.8020022,17.8550017 54.37,17.513 C53.9379978,17.1709983 53.4580026,17 52.93,17 C52.0659957,17 51.3640027,17.2879971 50.824,17.864 C50.2839973,18.4400029 50.014,19.1539957 50.014,20.006 C50.014,20.8580043 50.2839973,21.5719971 50.824,22.148 C51.3640027,22.7240029 52.0659957,23.012 52.93,23.012 C53.4580026,23.012 53.9379978,22.8410017 54.37,22.499 C54.8020022,22.1569983 55.0959992,21.7460024 55.252,21.266 L58.384,22.706 C58.191999,23.1500022 57.9520014,23.5609981 57.664,23.939 C57.3759986,24.3170019 57.0160022,24.6859982 56.584,25.046 C56.1519978,25.4060018 55.6210031,25.690999 54.991,25.901 C54.3609968,26.1110011 53.6740037,26.216 52.93,26.216 Z M68.626,26 L59.518,26 L59.518,13.994 L68.626,13.994 L68.626,17.162 L63.154,17.162 L63.154,18.35 L68.5,18.35 L68.5,21.518 L63.154,21.518 L63.154,22.832 L68.626,22.832 L68.626,26 Z M73.882,26 L70.246,26 L70.246,13.994 L79.354,13.994 L79.354,17.162 L73.882,17.162 L73.882,26 Z M91.504,24.488 C90.2559938,25.6400058 88.6960094,26.216 86.824,26.216 C84.9519906,26.216 83.3890063,25.6370058 82.135,24.479 C80.8809937,23.3209942 80.254,21.8300091 80.254,20.006 C80.254,18.1819909 80.8809937,16.6910058 82.135,15.533 C83.3890063,14.3749942 84.9519906,13.796 86.824,13.796 C88.6960094,13.796 90.2589937,14.3749942 91.513,15.533 C92.7670063,16.6910058 93.394,18.1819909 93.394,20.006 C93.394,21.8300091 92.7640063,23.3239942 91.504,24.488 Z M84.736,22.148 C85.2760027,22.7240029 85.9719957,23.012 86.824,23.012 C87.6760043,23.012 88.3689973,22.7240029 88.903,22.148 C89.4370027,21.5719971 89.704,20.8580043 89.704,20.006 C89.704,19.1539957 89.4370027,18.4400029 88.903,17.864 C88.3689973,17.2879971 87.6760043,17 86.824,17 C85.9719957,17 85.2790027,17.2879971 84.745,17.864 C84.2109973,18.4400029 83.944,19.1539957 83.944,20.006 C83.944,20.8580043 84.2079974,21.5719971 84.736,22.148 Z M94.078,28.214 L94.078,23.012 C94.678003,22.9039995 95.1399984,22.649002 95.464,22.247 C95.7880016,21.844998 96.0159993,21.1100053 96.148,20.042 L96.886,13.994 L106.264,13.994 L106.264,22.832 L107.308,22.832 L107.308,28.214 L103.672,28.214 L103.672,26 L97.714,26 L97.714,28.214 L94.078,28.214 Z M99.766,20.312 C99.6459994,21.308005 99.2560033,22.1479966 98.596,22.832 L102.628,22.832 L102.628,17.162 L100.162,17.162 L99.766,20.312 Z M120.088,26 L116.452,26 L116.452,21.41 L112.15,21.41 L112.15,26 L108.514,26 L108.514,13.994 L112.15,13.994 L112.15,18.242 L116.452,18.242 L116.452,13.994 L120.088,13.994 L120.088,26 Z M125.686,26 L121.546,26 L123.724,21.752 C123.135997,21.4639986 122.629002,21.020003 122.203,20.42 C121.776998,19.819997 121.564,19.0520047 121.564,18.116 C121.564,16.9399941 121.944996,15.9590039 122.707,15.173 C123.469004,14.3869961 124.527993,13.994 125.884,13.994 L132.292,13.994 L132.292,26 L128.656,26 L128.656,22.22 L127.342,22.22 L125.686,26 Z M126.442,19.052 L128.656,19.052 L128.656,17.162 L126.442,17.162 C126.105998,17.162 125.824001,17.2429992 125.596,17.405 C125.367999,17.5670008 125.254,17.7979985 125.254,18.098 C125.254,18.4100016 125.367999,18.6469992 125.596,18.809 C125.824001,18.9710008 126.105998,19.052 126.442,19.052 Z"/>
  </g>
</svg>
